<svg width="312" height="312" viewBox="0 0 312 312" fill="none" xmlns="http://www.w3.org/2000/svg">
<rect width="312" height="312" rx="71" fill="#EF7E30"/>
<path d="M109.665 155.895L63.8193 183.314C78.699 187.554 86.9968 189.625 97.8196 195.818C153.382 235.059 197.407 212.927 220.001 180.682C196.8 161.992 182.039 156.127 153.975 150.191C136.756 150.18 127.037 151.826 109.665 155.895Z" fill="#F5D5AF"/>
<path d="M63.6001 97.3251C50.9397 111.397 69.0841 114.654 89.0455 108.951C116.537 95.817 137.193 86.0199 165.162 83.5058C184.685 81.7509 198.943 84.8627 217.369 92.7186C233.147 99.4454 240.441 105.156 252.247 116.848C247.201 92.7186 214.956 66.3962 197.188 62.4478C163.626 54.9897 135.549 56.2473 97.1614 75.1701C81.5868 82.8476 73.6648 86.1379 63.6001 97.3251Z" fill="#763730"/>
<path d="M74.3477 156.113C123.281 101.991 193.897 104.126 219.342 138.345C181.394 111.585 135.767 104.126 74.3477 156.113Z" fill="#66261D"/>
<path d="M225.705 145.145C233.163 154.139 236.673 155.894 236.015 165.765C233.382 155.016 231.628 155.455 225.705 145.145Z" fill="#66261D"/>
<path d="M211.298 153.804C215.969 164.513 218.855 167.173 215.484 176.473C215.937 165.416 214.129 165.352 211.298 153.804Z" fill="#66261D"/>
<path d="M205.962 151.946C172.355 122.714 149.54 126.379 107.909 142.733C152.654 119.423 174.491 123.152 209.471 149.971C208.424 151.06 207.676 151.517 205.962 151.946Z" fill="#500C00"/>
<path d="M96.2824 192.088C87.0694 188.947 76.5003 186.787 65.1338 185.508C75.2661 187.977 80.6447 189.599 88.8243 193.624C92.7727 195.566 93.7148 198.302 92.334 199.985C85.3146 208.54 85.7533 211.392 94.5276 201.959C99.0167 197.133 101.986 199.108 105.495 201.959C99.8496 209.828 99.0774 213.134 99.3534 217.314C104.564 216.272 106.438 213.844 109.224 208.54L114.708 211.83C116.244 212.927 116.513 214.328 115.586 217.314C113.612 223.676 112.707 225.43 113.831 228.94C115.586 234.422 115.586 232.013 115.586 227.41V227.405C115.586 223.017 117.578 220.842 120.192 217.314C121.728 215.242 122.454 215.337 124.36 216.437C126.773 217.83 127.431 219.288 127.431 223.237C127.431 230.761 127.964 233.121 130.502 237.714C132.199 240.785 133.792 240.127 132.476 236.179C130.868 231.353 130.769 227.745 132.038 222.14C132.782 218.85 134.67 218.411 137.083 220.385C139.764 222.579 141.379 225.121 141.25 230.476C141.25 236.179 142.043 237.306 143.444 239.25C144.541 240.771 145.271 239.752 144.541 237.714C143.362 234.424 144.102 229.159 145.857 225.65C147.063 223.237 148.238 222.735 150.025 223.017C154.193 223.676 153.569 226.732 153.973 229.159C154.631 233.108 154.686 234.205 156.386 237.276C157.357 239.03 158.799 237.934 158.36 235.301C157.629 230.914 157.486 229.135 157.922 225.65C158.36 222.14 159.238 221.263 162.309 221.701C167.354 222.422 168.231 222.14 169.767 229.159C170.379 231.959 171.522 234.205 173.057 236.179C175.251 238.153 176.968 238.811 174.812 234.643C172.883 230.914 172.399 228.501 171.522 222.14C171.085 218.976 175.405 217.302 178.102 220.824C181.294 224.992 180.449 228.501 183.367 232.45C187.096 237.495 187.315 235.222 185.341 230.914C183.367 226.607 182.709 219.727 183.367 217.314C183.846 215.559 186.438 212.927 188.631 216.875C191.151 222.506 192.552 225.596 196.309 230.256C199.161 233.766 199.38 229.637 197.625 227.185C195 223.518 194.892 222.161 193.457 217.753C192.244 214.024 193.238 212.708 195.87 213.804C203.241 216.875 206.202 220.68 212.322 226.088C213.563 227.185 214.296 226.829 213.199 225.211C208.828 218.76 206.377 216.215 200.915 210.733C199.38 209.192 199.38 204.153 203.328 206.346C205.529 207.359 206.838 207.636 208.593 208.979C210.578 210.498 211.801 211.15 214.516 211.392C216.97 211.425 217.587 212.05 219.561 213.366C221.637 214.75 223.168 213.804 220.877 212.05C217.266 209.283 214.215 207.022 210.128 205.03C205.303 202.678 210.128 198.23 214.296 202.617L221.316 208.979C223.509 210.953 224.825 210.295 223.29 207.882C221.316 204.78 218.98 202.626 216.051 199.766C213.419 197.196 215.612 190.114 220.219 193.624C225.898 197.95 229.784 199.154 235.933 201.057L236.012 201.082C239.961 202.304 240.18 199.327 236.012 198.45C230.529 197.295 228.237 195.082 224.387 192.308C221.974 190.569 223.29 188.798 225.922 190.114C230.748 192.527 243.032 192.308 248.296 190.114C250.929 189.017 252.903 185.727 246.98 187.482C235.574 190.114 230.119 187.408 224.387 182.437L216.051 183.972C192.58 207.882 175.532 214.289 147.831 213.585C120.13 212.882 105.934 195.379 96.2824 192.088Z" fill="#743830"/>
<path d="M110.761 160.062L64.4766 181.559C117.561 139.661 152.877 126.5 196.968 157.21C207.695 154.738 213.009 152.657 221.974 148.436C229.871 144.717 230.091 146.023 223.51 150.629C218.026 154.468 215.292 156.468 209.91 159.184C207.058 160.623 208.813 163.776 211.665 163.791C222.917 163.85 227.135 163.538 231.407 162.475C239.523 160.454 239.523 162.475 234.478 165.765C230.749 168.197 228.004 168.836 221.974 169.713C219.123 169.713 216.71 176.865 225.045 178.488C230.699 179.588 236.452 180.33 242.594 178.488C251.368 175.855 252.246 178.488 244.349 180.9C238.768 182.257 235.415 182.821 228.116 182.655L215.832 184.191C210.391 182.969 207.533 182.841 202.452 182.655C186.791 198.715 185.841 198.43 198.723 180.023C195.049 177.362 192.908 176.375 189.071 174.758C192.142 191.21 167.793 211.172 146.955 208.759C127.211 206.473 110.989 193.581 110.761 160.062Z" fill="#773831"/>
<circle cx="165.6" cy="169.275" r="6.30005" fill="#FEEAD2" stroke="black"/>
<g filter="url(#filter0_f_322_3)">
<path d="M127.652 198.447C123.334 194.986 121.191 192.491 118.22 186.383H137.742L127.652 198.447Z" fill="url(#paint0_linear_322_3)"/>
</g>
<defs>
<filter id="filter0_f_322_3" x="114.22" y="182.383" width="27.5225" height="20.0645" filterUnits="userSpaceOnUse" color-interpolation-filters="sRGB">
<feFlood flood-opacity="0" result="BackgroundImageFix"/>
<feBlend mode="normal" in="SourceGraphic" in2="BackgroundImageFix" result="shape"/>
<feGaussianBlur stdDeviation="2" result="effect1_foregroundBlur_322_3"/>
</filter>
<linearGradient id="paint0_linear_322_3" x1="121.949" y1="192.305" x2="140.375" y2="181.776" gradientUnits="userSpaceOnUse">
<stop stop-color="#B9654A"/>
<stop offset="1" stop-color="#532D21"/>
</linearGradient>
</defs>
</svg>
