<svg width="150" height="150" viewBox="0 0 150 150" fill="none" xmlns="http://www.w3.org/2000/svg">
<path d="M43.5 0H106.5C130.5 0 150 19.5 150 43.5V106.5C150 118.037 145.417 129.101 137.259 137.259C129.101 145.417 118.037 150 106.5 150H43.5C19.5 150 0 130.5 0 106.5V43.5C0 31.9631 4.58302 20.8987 12.7409 12.7409C20.8987 4.58302 31.9631 0 43.5 0ZM42 15C34.8392 15 27.9716 17.8446 22.9081 22.9081C17.8446 27.9716 15 34.8392 15 42V108C15 122.925 27.075 135 42 135H108C115.161 135 122.028 132.155 127.092 127.092C132.155 122.028 135 115.161 135 108V42C135 27.075 122.925 15 108 15H42ZM114.375 26.25C116.861 26.25 119.246 27.2377 121.004 28.9959C122.762 30.754 123.75 33.1386 123.75 35.625C123.75 38.1114 122.762 40.496 121.004 42.2541C119.246 44.0123 116.861 45 114.375 45C111.889 45 109.504 44.0123 107.746 42.2541C105.988 40.496 105 38.1114 105 35.625C105 33.1386 105.988 30.754 107.746 28.9959C109.504 27.2377 111.889 26.25 114.375 26.25ZM75 37.5C84.9456 37.5 94.4839 41.4509 101.517 48.4835C108.549 55.5161 112.5 65.0544 112.5 75C112.5 84.9456 108.549 94.4839 101.517 101.517C94.4839 108.549 84.9456 112.5 75 112.5C65.0544 112.5 55.5161 108.549 48.4835 101.517C41.4509 94.4839 37.5 84.9456 37.5 75C37.5 65.0544 41.4509 55.5161 48.4835 48.4835C55.5161 41.4509 65.0544 37.5 75 37.5ZM75 52.5C69.0326 52.5 63.3097 54.8705 59.0901 59.0901C54.8705 63.3097 52.5 69.0326 52.5 75C52.5 80.9674 54.8705 86.6903 59.0901 90.9099C63.3097 95.1295 69.0326 97.5 75 97.5C80.9674 97.5 86.6903 95.1295 90.9099 90.9099C95.1295 86.6903 97.5 80.9674 97.5 75C97.5 69.0326 95.1295 63.3097 90.9099 59.0901C86.6903 54.8705 80.9674 52.5 75 52.5Z" fill="#E67246"/>
</svg>
