<svg width="1855" height="1730" viewBox="0 0 1855 1730" fill="none" xmlns="http://www.w3.org/2000/svg">
<path d="M1233.33 1637.67C1196.84 1665.52 1169.31 1680.6 1127.6 1697.55C1187.22 1634.79 1224.84 1600.01 1301.63 1539.43C1349.44 1508.98 1381.67 1507.6 1442.91 1516.04C1499.85 1522.85 1522.23 1535.8 1548.63 1572.18C1574.83 1611.48 1556.12 1658.25 1499.98 1664.81C1456.94 1632.06 1427 1603.05 1397.06 1594.64C1347.47 1580.69 1299.7 1587.02 1233.33 1637.67Z" fill="#8B4D22"/>
<path d="M705.632 1632.99C714.461 1584.11 706.325 1559.72 671.014 1521.65C702.615 1508.21 726.216 1526.33 803.873 1590.89C887.377 1660.31 982.255 1673.46 1128.54 1590.89C1069.49 1657.46 986.423 1695.68 893.694 1695.68C815.101 1695.68 763.81 1680.01 705.632 1632.99Z" fill="#8B4D22"/>
<path d="M488.563 148.175C533.161 200.57 569.03 350.272 455.819 397.052C370.335 432.376 312.666 487.81 399.68 523.362C379.096 537.398 366.933 541.141 332.315 546.754C164.374 573.988 102.297 437.426 103.023 335.395C103.617 251.8 139.575 192.734 194.778 144.432C262.143 85.4888 424.942 73.4294 488.563 148.175Z" fill="#8B4D22"/>
<path d="M141.45 958.432C141.45 975.273 131.151 984.629 124.605 964.981C117.953 932.258 111.091 925.91 159.224 842.414C205.07 762.885 204.135 696.964 84.3769 659.031C-8.25314 629.69 71.6725 504.652 154.549 536.463C247.176 572.017 253.254 726.339 193.846 827.444C134.437 928.549 141.45 907.909 141.45 958.432Z" fill="#8B4D22"/>
<path d="M83.4358 1017.38C104.02 1026.83 120.601 1017.38 104.02 994.923C60.6747 936.223 76.8038 895.534 135.831 817.153C178.814 760.078 92.7929 667.136 26.3624 777.857C-15.738 848.027 9.44697 983.412 83.4358 1017.38Z" fill="#8B4D22"/>
<path d="M591.485 224.898C627.039 291.327 591.485 416.702 437.106 462.548C543.442 469.584 602.715 463.133 705.632 364.307C752.414 319.385 774.869 211.799 743.057 133.207C728.667 97.6517 682.241 43.3853 605.52 73.3263C562.481 90.1225 549.921 147.24 591.485 224.898Z" fill="#8B4D22"/>
<path d="M1756.34 1114.65C1814.35 1196.99 1770.38 1340.14 1678.69 1414.06C1632.84 1451.01 1660.91 1463.63 1695.53 1447.74C1889.2 1358.85 1881.72 1124.95 1771.31 1073.49C1735.76 1056.92 1720.74 1064.13 1756.34 1114.65Z" fill="#8B4D22"/>
<path d="M464.24 1108.11V1203.54C464.015 1256.52 461.973 1286.72 454.883 1311.14C446.463 1340.14 444.591 1342.95 427.75 1356.05C418.126 1363.53 416.523 1381.31 424.943 1385.05C432.428 1388.38 438.978 1389.73 454.883 1389.73H566.223C580.18 1389.24 587.968 1386.47 592.421 1377.57C597.099 1368.21 589.584 1359.04 569.966 1342.95C557.971 1333.2 546.575 1307.4 546.575 1269.97L548.446 1107.17C549.815 1090.43 553.98 1089.06 566.223 1093.14C586.807 1100 588.298 1116.48 601.777 1147.4C611.974 1170.8 638.267 1168.92 638.267 1140.85C639.021 1102.92 636.493 1086.57 630.782 1059.46C624.881 1042.06 621.425 1037 592.421 1037H412.78C380.969 1037 371.612 1045.42 371.612 1072.55V1140.85C371.612 1173.6 399.681 1173.6 412.78 1140.85C421.014 1120.27 424.547 1109.52 437.106 1099.69C456.235 1084.72 464.24 1095.94 464.24 1108.11Z" fill="#8B4D22"/>
<path d="M122.735 1115.62C115.25 1154.91 130.204 1196.04 169.515 1217.6C181.266 1224.05 237.922 1251.76 254.659 1263.45C271.395 1275.14 283.319 1300.24 275.243 1317.71C268.571 1332.15 257.466 1345.78 230.331 1343.91C203.197 1342.04 186.511 1325.2 191.97 1292.45C195.714 1270 189.165 1244.44 152.674 1247.54C120.229 1250.3 103.59 1275.61 103.085 1303.68C102.462 1338.38 118.992 1361.92 131.154 1371.05C157.352 1390.69 179.807 1399.11 230.331 1399.11C275.627 1395.54 302.375 1390.35 336.993 1357.01C361.283 1333.62 366.135 1274.68 355.705 1251.28C340.218 1216.55 325.238 1201.19 249.979 1170.82C221.611 1159.37 205.521 1143.69 208.813 1111.88C210.362 1096.91 222.847 1088.72 236.882 1087.55C261.208 1085.52 278.751 1103.45 274.307 1121.23C269.863 1139.01 274.105 1151.58 289.277 1158.66C303.313 1165.21 320.716 1163.41 336.993 1149.3C351.029 1137.14 353.835 1109.07 346.349 1081.94C337.845 1051.11 305.478 1031.67 259.336 1028.6C213.193 1025.54 190.1 1034.61 169.515 1049.19C147.061 1065.09 128.26 1086.61 122.735 1115.62Z" fill="#8B4D22"/>
<path d="M1014.39 676.807C1027.48 738.4 1032.74 771.157 1039.65 827.443C1045.43 877.586 1049.48 899.724 1057.43 934.105C1065 966.852 1089.24 986.5 1107.95 986.5C1161.14 988.442 1165.43 985.902 1176.25 981.822C1187.08 977.742 1201.52 957.496 1209.94 927.556L1241.75 793.76L1276.37 651.545C1285.72 616.926 1292.66 603.777 1318.47 573.888C1333.82 556.111 1333.44 531.784 1297.89 531.784H1218.36C1194.97 531.784 1181.44 534.591 1180.93 550.497C1180.55 562.526 1181.87 572.356 1187.48 579.501C1197.77 592.6 1194.03 641.253 1192.16 657.159C1190.29 673.064 1172.51 756.335 1172.51 756.335C1159.41 819.958 1143.51 829.314 1129.47 756.335C1119.87 709.082 1116.2 686.721 1108.89 644.995C1101.15 603.672 1104.32 586.133 1122.92 564.531C1133.4 552.368 1129.47 531.783 1102.34 531.784H969.48C958.251 531.784 949.832 536.462 947.96 551.432C946.557 562.66 958.035 572.977 976.965 587.922C994.742 601.956 1005.97 635.639 1014.39 676.807Z" fill="#8B4D22"/>
<path d="M586.807 784.405C592.155 869.547 625.168 940.377 682.241 972.466C733.871 1001.49 784.225 1006.97 821.65 999.6C883.401 987.436 912.268 963.605 947.96 914.458C988.192 859.06 997.801 746.979 971.351 676.808C949.383 618.528 898.372 537.235 821.65 527.107C756.156 518.461 702.528 529.568 652.301 586.051C607.373 636.575 581.992 707.748 586.807 784.405Z" fill="#8B4D22"/>
<path d="M387.518 928.492C370.21 906.532 362.837 892.92 354.771 865.805C345.059 826.451 345.237 808.451 346.35 776.92C347.608 734.967 360.384 733.881 377.226 769.435L409.973 840.543C432.04 889.786 446.191 926.621 463.304 948.14C483.309 973.298 503.536 977.145 532.54 977.145C561.545 977.145 556.82 946.664 551.253 892.938C544.708 833.252 543.621 797.191 545.639 729.203C546.871 664.961 556.698 632.328 581.193 576.695C595.199 544.884 601.777 533.656 572.772 533.656H448.334C425.878 533.656 421.197 537.188 421.2 545.819C421.204 554.451 421.602 564.532 432.428 574.824C445.041 586.815 449.968 596.899 458.625 615.056C472.66 646.867 476.364 665.698 478.274 700.198C481.72 752.524 475.109 745.735 456.754 705.812C443.419 676.808 426.57 653.298 405.295 622.541C377.226 581.962 350.092 571.081 302.375 569.21C277.113 568.22 267.269 583.245 270.564 615.056C276.476 672.13 278.89 702.89 278.049 750.722C278.049 793.761 260.604 839.06 208.812 937.848C195.321 968.986 205.749 976.609 248.109 977.145H364.127C378.529 977.028 385.753 976.177 392.196 968.724C403.273 955.131 400.351 946.021 387.518 928.492Z" fill="#8B4D22"/>
<path d="M1352.15 811.538C1352.65 849.899 1351.51 879.782 1337.18 915.393C1332.29 927.556 1325.02 934.106 1319.41 939.719C1313.79 945.333 1305.68 963.11 1311.92 972.466C1317.53 980.887 1325.34 981.251 1341.86 981.823H1483.14C1493.43 981.823 1499.98 972.466 1499.98 963.11C1499.98 953.754 1498.16 946.898 1489.69 939.719C1478.65 930.363 1473.78 920.071 1469.1 907.908C1461.9 889.195 1456.63 856.231 1457.88 797.503C1457.88 778.791 1470.56 762.919 1494.37 738.559C1506.25 726.396 1508.4 703.005 1487.82 703.005H1337.18C1312.85 702.069 1310.05 727.225 1328.76 745.108C1349.36 764.802 1351.74 780.412 1352.15 811.538Z" fill="#8B4D22"/>
<path d="M1297.89 1173.6C1298.29 1222 1298.02 1275.22 1294.14 1303.65C1292.16 1318.21 1284.74 1338.32 1273.56 1346.69C1266.07 1352.31 1249.23 1362.6 1254.85 1377.57C1259.95 1391.18 1271.69 1388.8 1285.04 1388.8H1396.98C1414.84 1388.8 1424.71 1373.69 1414.84 1361.66C1404.97 1349.64 1396.29 1340.78 1389.58 1331.72C1380.83 1319.92 1379.55 1307.15 1378.35 1291.49C1376.48 1267.17 1374.55 1230.85 1375.54 1156.76C1375.84 1134.31 1372.74 1106.04 1400.69 1075.36C1418.58 1055.71 1416.99 1037.03 1400.69 1037.03H1281.33C1258.59 1037.03 1263.27 1061.33 1281.33 1080.04C1301.63 1101.08 1297.56 1134.33 1297.89 1173.6Z" fill="#8B4D22"/>
<path d="M672.885 1265.29V1138.98V1106.23C672.885 1088.46 666.624 1082.04 656.044 1064.13C649.413 1052.9 653.237 1034.19 672.885 1034.19H766.448C794.516 1034.19 789.838 1062.03 781.418 1069.75C770.19 1080.04 762.705 1087.52 762.705 1109.98V1265.29C762.705 1290.55 780.482 1308.33 808.551 1308.33C827.263 1308.33 848.783 1295.23 848.783 1265.29C850.709 1211.58 851.59 1162.37 851.59 1127.75C851.59 1103.27 847.022 1084.72 828.199 1066.94C811.358 1051.03 818.843 1034.19 844.105 1034.19H920.826C948.895 1034.19 951.033 1051.97 943.282 1062.26C928.335 1082.11 920.826 1095.01 920.826 1127.75V1298.97C920.826 1359.79 871.491 1386.49 837.555 1395.34C794.517 1406.57 749.607 1394.14 721.537 1381.31C693.468 1368.48 672.885 1338.27 672.885 1265.29Z" fill="#8B4D22"/>
<path d="M1382.09 670.257C1461.62 703.94 1514.79 650.956 1528.99 517.749C1535.53 671.192 1579.55 727.331 1665.59 685.228C1721.72 657.756 1719.85 549.561 1605.71 470.968C1729.89 532.68 1809.04 528.977 1829.32 437.285C1844.72 367.67 1794.7 291.327 1624.42 346.529C1759.2 276.315 1793.54 169.695 1710.5 117.3C1639.06 72.2274 1559.86 113.557 1528.05 287.584C1520.56 37.7707 1396.13 61.1623 1347.47 90.1664C1281.98 129.21 1258.59 237.996 1428.87 340.915C1287.59 264.193 1188.95 326.881 1200.58 408.28C1212.74 493.423 1272.7 522.933 1428.87 453.191C1346.91 533.084 1321.41 644.556 1382.09 670.257Z" fill="#8B4D22"/>
<path d="M1098.73 1034.64C1099.43 1034.65 1100.46 1034.67 1101.78 1034.73C1104.43 1034.86 1108.26 1035.11 1112.98 1035.65C1122.42 1036.74 1135.43 1038.97 1149.74 1043.54C1178.35 1052.69 1212.16 1071.23 1232.83 1108.8C1274.08 1183.81 1261.92 1265.4 1237.49 1302.99C1209.09 1346.68 1182.17 1374.27 1137.07 1384.6C1091.07 1395.15 1035.88 1393.97 994.74 1393.97C984.413 1393.97 976.021 1392.8 969.513 1390.75C963.008 1388.7 958.353 1385.76 955.547 1382.21C952.729 1378.64 951.803 1374.48 952.705 1370.08C953.604 1365.71 956.311 1361.12 960.7 1356.63C972.626 1344.44 980.944 1337.75 986.346 1322.79C991.76 1307.79 994.24 1284.48 994.24 1239.09V1129.62C994.415 1100.79 994.215 1085.99 979.426 1071.98C970.432 1063.46 968.239 1054.15 970.166 1046.93C972.089 1039.72 978.116 1034.63 985.385 1034.63H1097.66C1097.66 1034.63 1097.67 1034.63 1097.67 1034.63H1097.93C1098.11 1034.63 1098.38 1034.63 1098.73 1034.64ZM1086.43 1089.83C1083.4 1089.83 1081.08 1089.89 1079.32 1090.19C1077.55 1090.49 1076.27 1091.05 1075.4 1092.12C1074.55 1093.17 1074.16 1094.64 1073.96 1096.59C1073.77 1098.55 1073.77 1101.1 1073.77 1104.36V1104.36L1073.77 1302.72L1073.79 1304C1073.92 1310.27 1075.09 1314.07 1077.43 1316.29C1079.93 1318.67 1083.63 1319.12 1088.3 1319.12C1112.8 1319.12 1131.66 1308.28 1144.38 1290.14C1157.09 1272.02 1163.66 1246.65 1163.66 1217.58C1163.66 1163.24 1151.24 1131.29 1135.35 1112.92C1119.44 1094.55 1100.11 1089.83 1086.43 1089.83Z" fill="#8B4D22"/>
<path d="M1528.35 1035.39C1549.57 1028.77 1572.22 1028.5 1597.08 1031.85C1626.32 1035.8 1650.63 1053.41 1669.69 1075.65C1688.75 1097.89 1702.61 1124.79 1710.95 1147.41C1721.01 1174.71 1722.79 1209.63 1718.24 1243.09C1713.7 1276.55 1702.82 1308.61 1687.51 1330.17C1660.42 1368.31 1631.24 1391.38 1597.12 1398.25C1568.62 1403.99 1529.6 1399.65 1490.37 1377.09C1446.92 1352.11 1420.27 1297.75 1416.21 1231.67C1412.55 1172.12 1434.15 1116.17 1468.28 1076.92C1487.37 1054.98 1507.12 1042.02 1528.35 1035.39ZM1580.1 1088.93C1569.92 1086.71 1560.2 1087.46 1551.08 1092.44C1541.97 1097.4 1533.5 1106.55 1525.74 1121C1511.84 1146.86 1504.71 1184.65 1506.19 1223.79C1507.02 1245.53 1510.14 1265.34 1515.26 1281.77C1520.38 1298.19 1527.52 1311.28 1536.4 1319.54C1552.5 1334.52 1569.92 1332.27 1581.53 1328.48C1595.53 1323.92 1606.05 1313.72 1617.07 1288.6C1623.31 1274.4 1627.53 1251.54 1629.19 1227.79C1630.84 1204.03 1629.93 1179.31 1625.84 1161.35C1622.45 1146.47 1617.01 1129.7 1609.44 1115.99C1601.88 1102.31 1592.14 1091.56 1580.1 1088.93Z" fill="#8B4D22"/>
<path d="M800.129 354.95C863.622 489.68 1020.94 477.517 1098.6 416.701C1061.46 396.407 1029.83 385.826 1020.94 350.272C1010.65 309.104 1049.66 277.894 1092.98 288.52C1142.57 300.683 1155.67 325.945 1160.35 384.89C1189.79 365.84 1215.47 332.494 1223.03 288.52C1238 201.506 1204.56 114.491 1104.21 81.7459C1015.32 52.7433 929.247 77.5051 875.916 114.493C817.906 154.726 761.769 273.55 800.129 354.95Z" fill="#8B4D22"/>
<path d="M1854.59 644.061C1854.59 543.013 1741.37 543.013 1741.37 637.512C1741.12 700.443 1713.76 726.143 1633.78 761.015C1567.35 789.978 1518.69 863.933 1551.44 932.235C1572.53 976.209 1628.16 1005.16 1690.85 1021.12C1733.89 1032.07 1775.74 1023.19 1818.1 980.888C1846.2 952.818 1851.78 884.517 1805.93 840.543C1783.5 819.024 1754.89 812.22 1718.92 819.024C1684.3 825.573 1662.71 841.439 1654.36 867.676C1641.26 908.844 1680.56 931.314 1698.33 901.359C1703.33 892.938 1712.37 888.26 1719.85 888.26C1758.21 888.26 1769.44 901.358 1775.06 916.329C1782.78 936.912 1767.47 960.093 1753.54 970.931C1734.38 985.832 1697.4 980.888 1673.07 970.931C1642.09 958.251 1615.85 930.363 1604.77 916.329C1590.74 898.551 1591.67 854.785 1611.32 840.543C1649.97 812.532 1686.77 796.061 1759.15 772.242C1809.35 755.722 1852.62 693.008 1854.59 644.061Z" fill="#8B4D22"/>
<path d="M133.028 1518.85C91.5828 1574.99 120.865 1660.81 190.101 1686.33C256.42 1710.77 330.833 1694.75 360.386 1662.94C415.374 1603.74 441.261 1586.02 482.018 1571.24C517.572 1558.35 565.289 1567.5 602.714 1590.89C573.838 1587.64 557.666 1587.55 528.799 1593.7C496.052 1600.68 484.825 1621.77 482.018 1647.03C479.457 1670.08 505.435 1696.92 546.576 1705.04C593.358 1714.27 643.882 1707.85 671.951 1686.33C703.608 1662.06 718.732 1607.73 703.762 1567.5C689.138 1528.2 640.859 1484.87 555.933 1455.23C486.24 1430.9 412.269 1426.2 316.411 1430.9C246.239 1434.34 184.429 1449.23 133.028 1518.85Z" fill="#8B4D22"/>
<path d="M380.033 1553.47C419.006 1509.58 564.827 1508.14 640.138 1569.37C592.453 1511.69 553.249 1482.36 452.077 1482.36C409.038 1482.36 369.741 1482.36 312.667 1519.79C284.599 1538.19 249.046 1591.13 278.986 1610.54C302.918 1626.06 334.472 1604.78 380.033 1553.47Z" fill="#8B4D22"/>
<path d="M688.79 1442.12C646.51 1442.97 631.526 1445.06 586.807 1467.39C637.206 1487.85 650.429 1501.07 671.013 1521.65C698.466 1511.85 720.818 1519.48 782.353 1574.05C877.788 1658.68 985.385 1685.39 1129.47 1589.95C1166.52 1552.67 1181 1530.31 1204.32 1489.84C1215.11 1471.13 1214.4 1448.16 1184.67 1463.64C1152.86 1480.22 1108.89 1483.29 1065.85 1471.13C954.509 1439.66 947.176 1444.29 912.406 1452.42C875.916 1460.95 874.981 1492.65 892.758 1509.49C961.994 1575.08 1058.36 1565.63 1126.67 1544.11C1093.68 1571.94 1071.39 1585.73 1010.65 1600.25C969.479 1610.08 901.521 1587.15 864.689 1548.79C801.795 1483.28 732.765 1442.12 688.79 1442.12Z" fill="#8B4D22"/>
<path d="M1127.6 1697.55C1087.37 1705.97 1074.27 1697.55 1114.5 1662C1142.57 1637.19 1155.72 1618.96 1186.55 1575.92C1236.14 1506.68 1280.11 1466.95 1341.86 1446.8C1432.99 1417.07 1508.4 1426.05 1583.25 1461.77C1665.59 1501.07 1688.91 1597.47 1655.3 1637.67C1607.58 1694.75 1528.99 1684.45 1499.98 1664.81C1591.67 1651.87 1572.96 1538.5 1462.55 1519.78C1401.37 1510.89 1341.86 1506.92 1292.27 1547.85C1221.26 1606.46 1185.65 1639.23 1127.6 1697.55Z" fill="#8B4D22"/>
<path d="M1227.33 1627.69C1190.84 1655.54 1163.31 1670.62 1121.6 1687.57C1181.22 1624.81 1218.84 1590.02 1295.63 1529.45C1343.44 1498.99 1375.67 1497.61 1436.91 1506.06C1493.85 1512.86 1516.23 1525.82 1542.63 1562.2C1568.83 1601.49 1550.12 1648.27 1493.98 1654.82C1450.94 1622.07 1421 1593.07 1391.06 1584.65C1341.47 1570.71 1293.7 1577.03 1227.33 1627.69Z" fill="#FD8779"/>
<path d="M699.632 1623.01C708.461 1574.12 700.325 1549.74 665.014 1511.67C696.615 1498.22 720.216 1516.35 797.873 1580.91C881.377 1650.32 976.255 1663.48 1122.54 1580.91C1063.49 1647.48 980.423 1685.7 887.694 1685.7C809.101 1685.7 757.81 1670.03 699.632 1623.01Z" fill="#FBA953"/>
<path d="M482.563 138.184C527.161 190.579 563.03 340.28 449.819 387.061C364.335 422.384 306.666 477.818 393.68 513.371C373.096 527.407 360.933 531.149 326.315 536.763C158.374 563.997 96.2967 427.435 97.0225 325.404C97.6172 241.808 133.575 182.742 188.778 134.441C256.143 75.4976 418.942 63.4382 482.563 138.184Z" fill="#F67D48"/>
<path d="M135.45 948.442C135.45 965.283 125.151 974.639 118.605 954.991C111.953 922.268 105.091 915.92 153.224 832.423C199.07 752.895 198.135 686.974 78.3769 649.04C-14.2531 619.7 65.6725 494.662 148.549 526.473C241.176 562.027 247.254 716.348 187.846 817.454C128.437 918.559 135.45 897.919 135.45 948.442Z" fill="#FC8879"/>
<path d="M77.4358 1007.39C98.0197 1016.84 114.601 1007.39 98.0197 984.933C54.6747 926.233 70.8038 885.544 129.831 807.163C172.814 750.088 86.7929 657.146 20.3624 767.867C-21.738 838.037 3.44697 973.421 77.4358 1007.39Z" fill="#F67A44"/>
<path d="M585.485 214.907C621.039 281.336 585.485 406.71 431.106 452.557C537.442 459.593 596.715 453.142 699.632 354.316C746.414 309.394 768.869 201.808 737.057 123.215C722.667 87.6605 676.241 33.3941 599.52 63.3351C556.481 80.1313 543.921 137.249 585.485 214.907Z" fill="#FD8779"/>
<path d="M658.465 227.07C666.345 260.948 652.452 331.87 618.232 355.251C646.301 345.895 664.657 325.188 687.469 274.787C697.839 251.877 700.134 227.856 693.083 187.773C689.893 169.641 673.504 138.572 656.498 153.842C646.958 162.408 649.252 187.464 658.465 227.07Z" fill="#FCA953"/>
<path d="M458.844 238.599C478.128 304.973 424.749 357.929 369.575 384.971C307.168 415.557 295.765 482.631 360.934 529.279C333.801 534.893 321.637 539.571 289.668 534.013C141.551 508.261 139.196 356.181 171.142 283.158C197.316 223.33 241.819 197.757 299.182 176.896C341.837 161.384 439.56 172.225 458.844 238.599Z" fill="#FD877B"/>
<path d="M1750.34 1104.67C1808.35 1187 1764.38 1330.16 1672.69 1404.07C1626.84 1441.03 1654.91 1453.64 1689.53 1437.75C1883.2 1348.87 1875.72 1114.96 1765.31 1063.5C1729.76 1046.93 1714.74 1054.14 1750.34 1104.67Z" fill="#F37B46"/>
<path d="M458.24 1098.12V1193.55C458.015 1246.54 455.973 1276.73 448.883 1301.15C440.463 1330.16 438.591 1332.96 421.75 1346.06C412.126 1353.55 410.523 1371.32 418.943 1375.07C426.428 1378.39 432.978 1379.75 448.883 1379.75H560.223C574.18 1379.26 581.968 1376.49 586.421 1367.58C591.099 1358.23 583.584 1349.05 563.966 1332.96C551.971 1323.21 540.575 1297.41 540.575 1259.98L542.446 1097.18C543.815 1080.45 547.98 1079.07 560.223 1083.15C580.807 1090.01 582.298 1106.5 595.777 1137.42C605.974 1160.81 632.267 1158.94 632.267 1130.87C633.021 1092.94 630.493 1076.58 624.782 1049.47C618.881 1032.07 615.425 1027.01 586.421 1027.01H406.78C374.969 1027.01 365.612 1035.43 365.612 1062.57V1130.87C365.612 1163.61 393.681 1163.61 406.78 1130.87C415.014 1110.28 418.547 1099.53 431.106 1089.7C450.235 1074.73 458.24 1085.96 458.24 1098.12Z" fill="#EF7E30"/>
<path d="M116.735 1105.63C109.25 1144.92 124.204 1186.05 163.515 1207.61C175.266 1214.06 231.922 1241.77 248.659 1253.46C265.395 1265.15 277.319 1290.25 269.243 1307.72C262.571 1322.16 251.466 1335.79 224.331 1333.92C197.197 1332.05 180.511 1315.21 185.97 1282.46C189.714 1260.01 183.165 1234.45 146.674 1237.55C114.229 1240.31 97.5899 1265.62 97.0855 1293.69C96.462 1328.39 112.992 1351.93 125.154 1361.06C151.352 1380.7 173.807 1389.12 224.331 1389.12C269.627 1385.55 296.375 1380.36 330.993 1347.02C355.283 1323.63 360.135 1264.69 349.705 1241.29C334.218 1206.56 319.238 1191.2 243.979 1160.83C215.611 1149.38 199.521 1133.7 202.813 1101.89C204.362 1086.92 216.847 1078.73 230.882 1077.56C255.208 1075.53 272.751 1093.46 268.307 1111.24C263.863 1129.02 268.105 1141.59 283.277 1148.67C297.313 1155.22 314.716 1153.42 330.993 1139.31C345.029 1127.15 347.835 1099.08 340.349 1071.95C331.845 1041.12 299.478 1021.68 253.336 1018.61C207.193 1015.55 184.1 1024.62 163.515 1039.2C141.061 1055.1 122.26 1076.62 116.735 1105.63Z" fill="#EF7E30"/>
<path d="M1008.39 666.818C1021.48 728.411 1026.74 761.168 1033.65 817.454C1039.43 867.597 1043.48 889.735 1051.43 924.116C1059 956.863 1083.24 976.511 1101.95 976.511C1155.14 978.453 1159.43 975.913 1170.25 971.833C1181.08 967.753 1195.52 947.506 1203.94 917.566L1235.75 783.771L1270.37 641.556C1279.72 606.937 1286.66 593.788 1312.47 563.898C1327.82 546.121 1327.44 521.795 1291.89 521.795H1212.36C1188.97 521.795 1175.44 524.602 1174.93 540.508C1174.55 552.536 1175.87 562.366 1181.48 569.512C1191.77 582.611 1188.03 631.264 1186.16 647.169C1184.29 663.075 1166.51 746.346 1166.51 746.346C1153.41 809.969 1137.51 819.325 1123.47 746.346C1113.87 699.093 1110.2 676.732 1102.89 635.006C1095.15 593.683 1098.32 576.143 1116.92 554.542C1127.4 542.379 1123.47 521.794 1096.34 521.795H963.48C952.251 521.795 943.832 526.473 941.96 541.443C940.557 552.671 952.035 562.988 970.965 577.933C988.742 591.967 999.97 625.65 1008.39 666.818Z" fill="#EF7E30"/>
<path d="M580.807 774.415C586.155 859.557 619.168 930.387 676.241 962.476C727.871 991.505 778.225 996.981 815.65 989.61C877.401 977.446 906.268 953.614 941.96 904.468C982.192 849.069 991.801 736.989 965.351 666.817C943.383 608.537 892.372 527.245 815.65 517.117C750.156 508.47 696.528 519.578 646.301 576.061C601.373 626.585 575.992 697.758 580.807 774.415Z" fill="#EF7E30"/>
<path d="M381.518 918.502C364.21 896.541 356.837 882.93 348.771 855.815C339.059 816.461 339.237 798.46 340.35 766.93C341.608 724.977 354.384 723.891 371.226 759.445L403.973 830.553C426.04 879.796 440.191 916.631 457.304 938.15C477.309 963.307 497.536 967.154 526.54 967.154C555.545 967.154 550.82 936.674 545.253 882.948C538.708 823.262 537.621 787.201 539.639 719.213C540.871 654.971 550.698 622.337 575.193 566.705C589.199 534.894 595.777 523.666 566.772 523.666H442.334C419.878 523.666 415.197 527.198 415.2 535.829C415.204 544.461 415.602 554.542 426.428 564.834C439.041 576.825 443.968 586.909 452.625 605.066C466.66 636.877 470.364 655.708 472.274 690.208C475.72 742.534 469.109 735.745 450.754 695.822C437.419 666.817 420.57 643.308 399.295 612.551C371.226 571.972 344.092 561.091 296.375 559.22C271.113 558.229 261.269 573.254 264.564 605.066C270.476 662.139 272.89 692.9 272.049 740.732C272.049 783.771 254.604 829.07 202.812 927.858C189.321 958.996 199.749 966.619 242.109 967.154H358.127C372.529 967.038 379.753 966.186 386.196 958.734C397.273 945.141 394.351 936.031 381.518 918.502Z" fill="#EF7E30"/>
<path d="M1346.15 801.548C1346.65 839.908 1345.51 869.792 1331.18 905.403C1326.29 917.566 1319.02 924.116 1313.41 929.729C1307.79 935.343 1299.68 953.12 1305.92 962.476C1311.53 970.897 1319.34 971.261 1335.86 971.832H1477.14C1487.43 971.832 1493.98 962.476 1493.98 953.12C1493.98 943.763 1492.16 936.908 1483.69 929.729C1472.65 920.373 1467.78 910.081 1463.1 897.918C1455.9 879.205 1450.63 846.24 1451.88 787.513C1451.88 768.801 1464.56 752.929 1488.37 728.569C1500.25 716.406 1502.4 693.015 1481.82 693.015H1331.18C1306.85 692.079 1304.05 717.234 1322.76 735.118C1343.36 754.812 1345.74 770.421 1346.15 801.548Z" fill="#EF7E30"/>
<path d="M1291.89 1163.61C1292.29 1212.01 1292.02 1265.23 1288.14 1293.67C1286.16 1308.22 1278.74 1328.33 1267.56 1336.71C1260.07 1342.32 1243.23 1352.61 1248.85 1367.58C1253.95 1381.19 1265.69 1378.81 1279.04 1378.81H1390.98C1408.84 1378.81 1418.71 1363.7 1408.84 1351.68C1398.97 1339.65 1390.29 1330.79 1383.58 1321.74C1374.83 1309.93 1373.55 1297.16 1372.35 1281.5C1370.48 1257.18 1368.55 1220.86 1369.54 1146.77C1369.84 1124.32 1366.74 1096.05 1394.69 1065.37C1412.58 1045.72 1410.99 1027.04 1394.69 1027.04H1275.33C1252.59 1027.04 1257.27 1051.34 1275.33 1070.05C1295.63 1091.09 1291.56 1124.34 1291.89 1163.61Z" fill="#EF7E30"/>
<path d="M666.885 1255.31V1129V1096.25C666.885 1078.47 660.624 1072.06 650.044 1054.15C643.413 1042.92 647.237 1024.21 666.885 1024.21H760.448C788.516 1024.21 783.838 1052.04 775.418 1059.76C764.19 1070.05 756.705 1077.54 756.705 1099.99V1255.31C756.705 1280.57 774.482 1298.34 802.551 1298.34C821.263 1298.34 842.783 1285.25 842.783 1255.31C844.709 1201.59 845.59 1152.39 845.59 1117.77C845.59 1093.28 841.022 1074.73 822.199 1056.95C805.358 1041.05 812.843 1024.21 838.105 1024.21H914.826C942.895 1024.21 945.033 1041.98 937.282 1052.27C922.335 1072.12 914.826 1085.02 914.826 1117.77V1288.99C914.826 1349.8 865.491 1376.51 831.555 1385.36C788.517 1396.59 743.607 1384.16 715.537 1371.32C687.468 1358.49 666.885 1328.28 666.885 1255.31Z" fill="#EF7E30"/>
<path d="M1376.09 660.267C1455.62 693.95 1508.79 640.966 1522.99 507.759C1529.53 661.202 1573.55 717.341 1659.59 675.237C1715.72 647.766 1713.85 539.57 1599.71 460.977C1723.89 522.689 1803.04 518.986 1823.32 427.295C1838.72 357.68 1788.7 281.337 1618.42 336.539C1753.2 266.325 1787.54 159.705 1704.5 107.309C1633.06 62.2372 1553.86 103.567 1522.05 277.594C1514.56 27.7805 1390.13 51.1721 1341.47 80.1761C1275.98 119.22 1252.59 228.006 1422.87 330.925C1281.59 254.203 1182.95 316.89 1194.58 398.29C1206.74 483.433 1266.7 512.943 1422.87 443.2C1340.91 523.094 1315.41 634.566 1376.09 660.267Z" fill="#F47C47"/>
<circle cx="1511.76" cy="379.579" r="80.4642" fill="#F9A850"/>
<path d="M1092.73 1024.65C1093.43 1024.66 1094.46 1024.69 1095.78 1024.75C1098.43 1024.87 1102.26 1025.13 1106.98 1025.67C1116.42 1026.75 1129.43 1028.98 1143.74 1033.55C1172.35 1042.7 1206.16 1061.24 1226.83 1098.82C1268.08 1173.82 1255.92 1255.42 1231.49 1293C1203.09 1336.7 1176.17 1364.28 1131.07 1374.62C1085.07 1385.16 1029.88 1383.99 988.74 1383.99C978.413 1383.99 970.021 1382.81 963.513 1380.76C957.008 1378.71 952.353 1375.77 949.547 1372.22C946.729 1368.65 945.803 1364.49 946.705 1360.1C947.604 1355.72 950.311 1351.14 954.7 1346.65C966.626 1334.46 974.944 1327.76 980.346 1312.8C985.76 1297.8 988.24 1274.49 988.24 1229.11V1119.64C988.415 1090.8 988.215 1076.01 973.426 1061.99C964.432 1053.47 962.239 1044.17 964.166 1036.94C966.089 1029.73 972.116 1024.64 979.385 1024.64H1091.66C1091.66 1024.64 1091.67 1024.64 1091.67 1024.64H1091.93C1092.11 1024.64 1092.38 1024.64 1092.73 1024.65ZM1080.43 1079.84C1077.4 1079.84 1075.08 1079.9 1073.32 1080.2C1071.55 1080.5 1070.27 1081.06 1069.4 1082.13C1068.55 1083.19 1068.16 1084.65 1067.96 1086.61C1067.77 1088.57 1067.77 1091.11 1067.77 1094.38V1094.38L1067.77 1292.73L1067.79 1294.02C1067.92 1300.28 1069.09 1304.08 1071.43 1306.31C1073.93 1308.68 1077.63 1309.14 1082.3 1309.14C1106.8 1309.14 1125.66 1298.29 1138.38 1280.15C1151.09 1262.03 1157.66 1236.66 1157.66 1207.59C1157.66 1153.25 1145.24 1121.31 1129.35 1102.94C1113.44 1084.56 1094.11 1079.84 1080.43 1079.84Z" fill="#EF7E30"/>
<path d="M1522.35 1025.4C1543.57 1018.78 1566.22 1018.51 1591.08 1021.86C1620.32 1025.81 1644.63 1043.42 1663.69 1065.66C1682.75 1087.9 1696.61 1114.8 1704.95 1137.42C1715.01 1164.72 1716.79 1199.64 1712.24 1233.1C1707.7 1266.56 1696.82 1298.62 1681.51 1320.18C1654.42 1358.32 1625.24 1381.38 1591.12 1388.26C1562.62 1394 1523.6 1389.66 1484.37 1367.1C1440.92 1342.12 1414.27 1287.76 1410.21 1221.68C1406.55 1162.13 1428.15 1106.18 1462.28 1066.93C1481.37 1044.98 1501.12 1032.03 1522.35 1025.4ZM1574.1 1078.94C1563.92 1076.72 1554.2 1077.47 1545.08 1082.44C1535.97 1087.41 1527.5 1096.56 1519.74 1111C1505.84 1136.86 1498.71 1174.66 1500.19 1213.8C1501.02 1235.54 1504.14 1255.35 1509.26 1271.78C1514.38 1288.2 1521.52 1301.29 1530.4 1309.55C1546.5 1324.53 1563.92 1322.28 1575.53 1318.49C1589.53 1313.93 1600.05 1303.73 1611.07 1278.61C1617.31 1264.41 1621.53 1241.55 1623.19 1217.8C1624.84 1194.04 1623.93 1169.32 1619.84 1151.36C1616.45 1136.48 1611.01 1119.71 1603.44 1106C1595.88 1092.32 1586.14 1081.57 1574.1 1078.94Z" fill="#EF7E30"/>
<circle cx="1511.76" cy="379.578" r="35.5539" fill="#F47D45"/>
<path d="M301.99 381.449C278.066 407.545 281.404 478.011 334.737 523.666C306.519 499.51 235.557 475.948 235.557 400.161C235.557 373.649 243.553 340.618 269.24 308.469C280.861 293.926 321.219 266.366 347.833 296.305C374.448 326.245 329.958 350.942 301.99 381.449Z" fill="#FBA955"/>
<path d="M794.129 344.96C857.622 479.69 1014.94 467.527 1092.6 406.711C1055.46 386.417 1023.83 375.835 1014.94 340.281C1004.65 299.114 1043.66 267.904 1086.98 278.53C1136.57 290.693 1149.67 315.955 1154.35 374.899C1183.79 355.85 1209.47 322.504 1217.03 278.53C1232 191.516 1198.56 104.501 1098.21 71.7557C1009.32 42.753 923.247 67.5149 869.916 104.503C811.906 144.736 755.769 263.559 794.129 344.96Z" fill="#F67D46"/>
<path d="M868.042 320.631C889.629 409.681 1017.75 437.586 1080.43 415.132C1046.75 409.517 959.734 415.131 938.215 326.246C921.357 256.615 987.803 192.809 1077.62 219.584C1112.35 229.937 1171.19 259.816 1160.9 370.221C1181.52 354.007 1201.13 305.124 1201.13 280.399C1201.13 231.746 1172.12 178.748 1108.5 146.938C1048.6 116.989 988.591 129.895 942.894 158.769C885.672 194.925 853.072 258.88 868.042 320.631Z" fill="#FBA955"/>
<path d="M980.324 228.007C939.301 252.743 925.893 302.623 941.024 343.088C957.979 388.43 988.742 412.325 1079.5 416.067L1093.88 406.711C1062.66 391.741 1024.67 377.706 1014.94 339.346C1002.86 291.71 1051.88 265.913 1093.88 279.465C1102.73 282.32 1147.16 291.723 1153.41 375.835L1161.83 369.678C1162.24 359.694 1162.77 356.187 1161.83 333.732C1160.43 300.049 1145.7 249.769 1100.09 228.007C1057.14 207.518 1013.09 208.254 980.324 228.007Z" fill="#FD8779"/>
<path d="M1697.95 882.947C1707.31 928.793 1645.55 945.634 1599.71 909.145L1674.56 985.867L1788.71 966.218L1776.54 871.72C1723.24 863.638 1705.29 865.671 1697.95 882.947Z" fill="#FBA953"/>
<path d="M1848.59 634.071C1848.59 533.022 1735.37 533.023 1735.37 627.521C1735.12 690.453 1707.76 716.153 1627.78 751.024C1561.35 779.988 1512.69 853.943 1545.44 922.245C1566.53 966.219 1622.16 995.173 1684.85 1011.13C1727.89 1022.08 1769.74 1013.2 1812.1 970.897C1840.2 942.828 1845.78 874.527 1799.93 830.553C1777.5 809.033 1748.89 802.23 1712.92 809.033C1678.3 815.582 1656.71 831.449 1648.36 857.686C1635.26 898.853 1674.56 921.323 1692.33 891.368C1697.33 882.948 1706.37 878.269 1713.85 878.269C1752.21 878.269 1763.44 891.368 1769.06 906.338C1776.78 926.922 1761.47 950.103 1747.54 960.941C1728.38 975.842 1691.4 970.897 1667.07 960.941C1636.09 948.261 1609.85 920.373 1598.77 906.338C1584.74 888.561 1585.67 844.795 1605.32 830.553C1643.97 802.541 1680.77 786.071 1753.15 762.251C1803.35 745.732 1846.62 683.018 1848.59 634.071Z" fill="url(#paint0_linear_325_40)"/>
<path d="M127.028 1508.86C85.5828 1565 114.865 1650.82 184.101 1676.34C250.42 1700.78 324.833 1684.76 354.386 1652.95C409.374 1593.76 435.261 1576.03 476.018 1561.26C511.572 1548.37 559.289 1557.51 596.714 1580.91C567.838 1577.65 551.666 1577.56 522.799 1583.71C490.052 1590.69 478.825 1611.78 476.018 1637.04C473.457 1660.09 499.435 1686.94 540.576 1695.05C587.358 1704.28 637.882 1697.86 665.951 1676.34C697.608 1652.07 712.732 1597.75 697.762 1557.51C683.138 1518.21 634.859 1474.88 549.933 1445.24C480.24 1420.91 406.269 1416.21 310.411 1420.91C240.239 1424.36 178.429 1439.24 127.028 1508.86Z" fill="#FD8679"/>
<path d="M374.033 1543.48C413.006 1499.59 558.827 1498.15 634.138 1559.39C586.453 1501.71 547.249 1472.37 446.077 1472.37C403.038 1472.37 363.741 1472.37 306.667 1509.8C278.599 1528.21 243.046 1581.14 272.986 1600.55C296.918 1616.07 328.472 1594.79 374.033 1543.48Z" fill="#FCA953"/>
<path d="M682.79 1432.14C640.51 1432.98 625.526 1435.07 580.807 1457.4C631.206 1477.87 644.429 1491.09 665.013 1511.67C692.466 1501.86 714.818 1509.49 776.353 1564.06C871.788 1648.7 979.385 1675.4 1123.47 1579.97C1160.52 1542.69 1175 1520.32 1198.32 1479.86C1209.11 1461.15 1208.4 1438.17 1178.67 1453.66C1146.86 1470.23 1102.89 1473.31 1059.85 1461.15C948.509 1429.68 941.176 1434.3 906.406 1442.43C869.916 1450.97 868.981 1482.66 886.758 1499.51C955.994 1565.1 1052.36 1555.64 1120.67 1534.12C1087.68 1561.96 1065.39 1575.75 1004.65 1590.26C963.479 1600.1 895.521 1577.16 858.689 1538.8C795.795 1473.3 726.765 1432.14 682.79 1432.14Z" fill="#F47B45"/>
<path d="M1121.6 1687.57C1081.37 1695.99 1068.27 1687.57 1108.5 1652.01C1136.57 1627.2 1149.72 1608.98 1180.55 1565.94C1230.14 1496.7 1274.11 1456.97 1335.86 1436.82C1426.99 1407.09 1502.4 1416.07 1577.25 1451.79C1659.59 1491.09 1682.91 1587.49 1649.3 1627.69C1601.58 1684.76 1522.99 1674.47 1493.98 1654.82C1585.67 1641.88 1566.96 1528.51 1456.55 1509.8C1395.37 1500.9 1335.86 1496.94 1286.27 1537.87C1215.26 1596.48 1179.65 1629.25 1121.6 1687.57Z" fill="#F47C47"/>
<path d="M709.355 755.339L638.801 797.536C661.7 804.062 674.47 807.248 691.126 816.779C776.634 877.17 844.388 843.11 879.159 793.485C843.453 764.722 820.736 755.696 777.547 746.562C751.047 746.544 736.09 749.077 709.355 755.339Z" fill="#F5D5AF"/>
<path d="M638.463 665.203C618.979 686.86 646.903 691.872 677.623 683.095C719.931 662.883 751.719 647.805 794.763 643.936C824.808 641.235 846.751 646.024 875.108 658.114C899.39 668.467 910.615 677.255 928.783 695.248C921.019 658.114 871.394 617.605 844.05 611.529C792.4 600.051 749.19 601.986 690.113 631.108C666.144 642.923 653.952 647.987 638.463 665.203Z" fill="#763730"/>
<path d="M655.005 755.674C730.312 672.383 838.987 675.668 878.146 728.33C819.745 687.146 749.528 675.669 655.005 755.674Z" fill="#66261D"/>
<path d="M887.935 738.796C899.413 752.638 904.815 755.338 903.801 770.529C899.751 753.987 897.05 754.663 887.935 738.796Z" fill="#66261D"/>
<path d="M865.766 752.121C872.955 768.602 877.396 772.695 872.209 787.009C872.905 769.993 870.123 769.893 865.766 752.121Z" fill="#66261D"/>
<path d="M857.553 749.261C805.834 704.275 770.722 709.914 706.654 735.083C775.514 699.209 809.122 704.948 862.955 746.223C861.343 747.898 860.191 748.601 857.553 749.261Z" fill="#500C00"/>
<path d="M688.763 811.038C674.584 806.205 658.319 802.88 640.826 800.911C656.419 804.711 664.697 807.208 677.285 813.401C683.361 816.391 684.811 820.601 682.686 823.191C671.884 836.357 672.559 840.745 686.062 826.229C692.971 818.803 697.54 821.841 702.941 826.229C694.253 838.339 693.064 843.428 693.489 849.86C701.508 848.256 704.392 844.52 708.68 836.357L717.12 841.42C719.483 843.108 719.896 845.264 718.47 849.86C715.432 859.65 714.04 862.351 715.769 867.752C718.47 876.188 718.47 872.481 718.47 865.397V865.389C718.47 858.637 721.536 855.29 725.559 849.86C727.922 846.671 729.04 846.816 731.973 848.51C735.687 850.653 736.699 852.898 736.699 858.975C736.699 870.554 737.519 874.186 741.425 881.255C744.037 885.981 746.489 884.968 744.464 878.892C741.988 871.465 741.836 865.912 743.789 857.287C744.935 852.223 747.84 851.548 751.553 854.586C755.679 857.962 758.164 861.875 757.967 870.115C757.967 878.892 759.186 880.627 761.343 883.618C763.031 885.959 764.154 884.391 763.031 881.255C761.216 876.191 762.356 868.089 765.056 862.688C766.913 858.975 768.721 858.203 771.47 858.637C777.884 859.65 776.924 864.354 777.547 868.089C778.559 874.166 778.644 875.854 781.26 880.58C782.755 883.281 784.973 881.593 784.298 877.542C783.173 870.79 782.953 868.053 783.623 862.688C784.298 857.287 785.649 855.936 790.375 856.612C798.139 857.721 799.489 857.287 801.853 868.089C802.795 872.398 804.553 875.854 806.916 878.892C810.292 881.93 812.934 882.942 809.617 876.529C806.648 870.79 805.904 867.077 804.553 857.287C803.882 852.418 810.53 849.841 814.681 855.261C819.592 861.675 818.291 867.077 822.783 873.153C828.521 880.918 828.859 877.419 825.821 870.79C822.783 864.161 821.77 853.573 822.783 849.86C823.519 847.159 827.509 843.108 830.885 849.185C834.762 857.851 836.918 862.605 842.7 869.777C847.088 875.179 847.426 868.824 844.725 865.051C840.685 859.407 840.519 857.32 838.311 850.535C836.444 844.796 837.974 842.771 842.025 844.459C853.367 849.185 857.924 855.04 867.343 863.363C869.253 865.051 870.382 864.504 868.694 862.013C861.966 852.086 858.195 848.169 849.789 839.733C847.426 837.361 847.426 829.605 853.503 832.981C856.889 834.54 858.904 834.965 861.604 837.032C864.66 839.37 866.542 840.374 870.719 840.745C874.497 840.797 875.445 841.758 878.484 843.784C881.679 845.914 884.034 844.459 880.509 841.758C874.952 837.501 870.256 834.02 863.968 830.955C856.541 827.336 863.968 820.49 870.382 827.242L881.184 837.032C884.56 840.07 886.585 839.057 884.222 835.344C881.184 830.57 877.59 827.255 873.082 822.854C869.031 818.898 872.407 808 879.496 813.401C888.236 820.06 894.217 821.912 903.68 824.841L903.802 824.879C909.879 826.76 910.216 822.178 903.802 820.828C895.363 819.051 891.835 815.646 885.91 811.376C882.197 808.7 884.222 805.974 888.273 808C895.7 811.713 914.605 811.376 922.707 808C926.758 806.312 929.796 801.248 920.681 803.949C903.127 808 894.732 803.836 885.91 796.185L873.082 798.548C836.961 835.344 810.725 845.204 768.094 844.121C725.464 843.039 703.616 816.102 688.763 811.038Z" fill="#743830"/>
<path d="M711.043 761.752L639.813 794.835C721.508 730.357 775.859 710.102 843.713 757.364C860.221 753.559 868.4 750.357 882.197 743.86C894.35 738.138 894.687 740.147 884.56 747.236C876.12 753.144 871.913 756.222 863.63 760.402C859.241 762.617 861.942 767.468 866.331 767.491C883.648 767.582 890.138 767.102 896.713 765.466C909.203 762.356 909.203 765.466 901.439 770.529C895.7 774.272 891.477 775.256 882.197 776.606C877.808 776.606 874.095 787.612 886.923 790.109C895.623 791.802 904.477 792.945 913.93 790.109C927.433 786.058 928.783 790.109 916.63 793.822C908.042 795.911 902.882 796.777 891.649 796.523L872.745 798.886C864.37 797.006 859.973 796.809 852.152 796.523C828.05 821.239 826.589 820.799 846.413 792.472C840.759 788.377 837.464 786.858 831.56 784.37C836.286 809.689 798.814 840.409 766.744 836.695C736.359 833.177 711.395 813.337 711.043 761.752Z" fill="#773831"/>
<circle cx="795.438" cy="775.93" r="9.96502" fill="#FEEAD2" stroke="black"/>
<g filter="url(#filter0_f_325_40)">
<path d="M737.037 820.828C730.393 815.501 727.094 811.66 722.521 802.261H752.566L737.037 820.828Z" fill="url(#paint1_linear_325_40)"/>
</g>
<defs>
<filter id="filter0_f_325_40" x="718.521" y="798.261" width="38.0449" height="26.5674" filterUnits="userSpaceOnUse" color-interpolation-filters="sRGB">
<feFlood flood-opacity="0" result="BackgroundImageFix"/>
<feBlend mode="normal" in="SourceGraphic" in2="BackgroundImageFix" result="shape"/>
<feGaussianBlur stdDeviation="2" result="effect1_foregroundBlur_325_40"/>
</filter>
<linearGradient id="paint0_linear_325_40" x1="1534.21" y1="877.334" x2="1726.95" y2="957.798" gradientUnits="userSpaceOnUse">
<stop stop-color="#F47B44"/>
<stop offset="1" stop-color="#FB8674"/>
</linearGradient>
<linearGradient id="paint1_linear_325_40" x1="728.26" y1="811.375" x2="756.617" y2="795.172" gradientUnits="userSpaceOnUse">
<stop stop-color="#B9654A"/>
<stop offset="1" stop-color="#532D21"/>
</linearGradient>
</defs>
</svg>
