<svg width="1866" height="1720" viewBox="0 0 1866 1720" fill="none" xmlns="http://www.w3.org/2000/svg">
<g filter="url(#filter0_d_299_58)">
<path d="M1229.73 1627.7C1193.24 1655.55 1165.71 1670.63 1124 1687.58C1183.62 1624.82 1221.24 1590.03 1298.03 1529.46C1345.84 1499 1378.07 1497.62 1439.31 1506.07C1496.26 1512.87 1518.63 1525.83 1545.03 1562.2C1571.23 1601.5 1552.52 1648.28 1496.38 1654.83C1453.34 1622.08 1423.4 1593.08 1393.46 1584.66C1343.87 1570.72 1296.1 1577.04 1229.73 1627.7Z" fill="#FD8779"/>
<path d="M702.032 1623.02C710.861 1574.13 702.726 1549.75 667.414 1511.68C699.015 1498.23 722.616 1516.36 800.273 1580.91C883.777 1650.33 978.655 1663.48 1124.94 1580.91C1065.89 1647.49 982.823 1685.7 890.094 1685.7C811.501 1685.7 760.21 1670.04 702.032 1623.02Z" fill="#FBA953"/>
<path d="M484.963 138.184C529.561 190.579 565.431 340.28 452.219 387.061C366.735 422.384 309.066 477.818 396.08 513.371C375.496 527.407 363.334 531.149 328.715 536.763C160.774 563.997 98.6971 427.435 99.4229 325.404C100.018 241.808 135.976 182.742 191.178 134.441C258.543 75.4976 421.342 63.4382 484.963 138.184Z" fill="#F67D48"/>
<path d="M137.851 948.442C137.851 965.283 127.552 974.639 121.006 954.991C114.354 922.268 107.491 915.92 155.624 832.423C201.47 752.895 200.535 686.974 80.7773 649.04C-11.8527 619.7 68.0729 494.662 150.95 526.473C243.577 562.027 249.655 716.348 190.246 817.454C130.837 918.559 137.851 897.919 137.851 948.442Z" fill="#FC8879"/>
<path d="M79.8362 1007.39C100.42 1016.84 117.001 1007.39 100.42 984.933C57.0751 926.233 73.2042 885.544 132.232 807.163C175.214 750.088 89.1933 657.146 22.7628 767.867C-19.3376 838.037 5.84736 973.421 79.8362 1007.39Z" fill="#F67A44"/>
<path d="M587.886 214.907C623.44 281.336 587.886 406.71 433.507 452.557C539.842 459.593 599.115 453.142 702.033 354.316C748.814 309.394 771.269 201.808 739.458 123.215C725.067 87.6605 678.642 33.3941 601.92 63.3351C558.881 80.1313 546.322 137.249 587.886 214.907Z" fill="#FD8779"/>
<path d="M660.865 227.07C668.746 260.948 654.852 331.87 620.633 355.251C648.702 345.895 667.057 325.188 689.869 274.787C700.239 251.877 702.534 227.856 695.483 187.773C692.293 169.641 675.904 138.572 658.899 153.842C649.359 162.408 651.652 187.464 660.865 227.07Z" fill="#FCA953"/>
<path d="M461.245 238.599C480.529 304.973 427.149 357.929 371.975 384.971C309.569 415.557 298.165 482.631 363.335 529.279C336.201 534.893 324.038 539.571 292.069 534.013C143.951 508.261 141.596 356.181 173.542 283.158C199.716 223.33 244.22 197.757 301.583 176.896C344.237 161.384 441.961 172.225 461.245 238.599Z" fill="#FD877B"/>
<path d="M1752.74 1104.68C1810.75 1187.01 1766.78 1330.17 1675.09 1404.08C1629.24 1441.04 1657.31 1453.65 1691.93 1437.76C1885.6 1348.88 1878.12 1114.97 1767.71 1063.51C1732.16 1046.94 1717.15 1054.15 1752.74 1104.68Z" fill="#F37B46"/>
<path d="M460.64 1098.13V1193.56C460.415 1246.55 458.373 1276.74 451.284 1301.16C442.863 1330.17 440.992 1332.97 424.15 1346.07C414.527 1353.56 412.923 1371.33 421.344 1375.08C428.829 1378.4 435.378 1379.75 451.284 1379.75H562.624C576.581 1379.27 584.369 1376.5 588.821 1367.59C593.499 1358.24 585.985 1349.06 566.366 1332.97C554.372 1323.22 542.975 1297.42 542.975 1259.99L544.847 1097.19C546.216 1080.46 550.38 1079.08 562.624 1083.16C583.208 1090.02 584.698 1106.51 598.178 1137.43C608.374 1160.82 634.667 1158.95 634.667 1130.88C635.422 1092.95 632.894 1076.59 627.182 1049.48C621.282 1032.08 617.826 1027.02 588.821 1027.02H409.18C377.369 1027.02 368.013 1035.44 368.013 1062.58V1130.88C368.013 1163.62 396.082 1163.62 409.18 1130.88C417.414 1110.29 420.948 1099.54 433.507 1089.71C452.635 1074.74 460.64 1085.97 460.64 1098.13Z" fill="#EF7E30"/>
<path d="M119.135 1105.63C111.65 1144.92 126.604 1186.05 165.916 1207.61C177.666 1214.06 234.322 1241.77 251.059 1253.46C267.796 1265.15 279.719 1290.24 271.643 1307.72C264.972 1322.16 253.866 1335.79 226.731 1333.92C199.597 1332.05 182.911 1315.21 188.371 1282.46C192.114 1260.01 185.565 1234.45 149.074 1237.55C116.629 1240.31 99.9903 1265.62 99.4859 1293.69C98.8624 1328.39 115.393 1351.93 127.555 1361.05C153.752 1380.7 176.207 1389.12 226.731 1389.12C272.027 1385.55 298.775 1380.36 333.393 1347.02C357.684 1323.63 362.535 1264.68 352.106 1241.29C336.619 1206.56 321.638 1191.2 246.38 1160.83C218.012 1149.38 201.922 1133.7 205.213 1101.88C206.762 1086.91 219.248 1078.73 233.282 1077.56C257.608 1075.53 275.152 1093.46 270.707 1111.24C266.263 1129.02 270.506 1141.59 285.677 1148.67C299.713 1155.22 317.116 1153.42 333.393 1139.31C347.429 1127.15 350.236 1099.08 342.75 1071.94C334.245 1041.12 301.879 1021.68 255.736 1018.61C209.593 1015.54 186.501 1024.62 165.916 1039.2C143.462 1055.1 124.66 1076.62 119.135 1105.63Z" fill="#EF7E30"/>
<path d="M1010.79 666.817C1023.88 728.41 1029.14 761.167 1036.05 817.453C1041.83 867.596 1045.88 889.734 1053.83 924.115C1061.4 956.862 1085.64 976.51 1104.35 976.51C1157.54 978.452 1161.83 975.912 1172.65 971.832C1183.48 967.752 1197.92 947.505 1206.34 917.565L1238.15 783.77L1272.77 641.555C1282.12 606.936 1289.06 593.787 1314.87 563.897C1330.22 546.12 1329.84 521.794 1294.29 521.794H1214.76C1191.37 521.794 1177.84 524.601 1177.33 540.507C1176.95 552.535 1178.27 562.365 1183.88 569.511C1194.17 582.61 1190.43 631.263 1188.56 647.168C1186.69 663.074 1168.91 746.345 1168.91 746.345C1155.81 809.968 1139.91 819.324 1125.87 746.345C1116.27 699.092 1112.6 676.731 1105.29 635.005C1097.55 593.682 1100.72 576.142 1119.32 554.541C1129.8 542.378 1125.87 521.793 1098.74 521.794H965.88C954.651 521.794 946.232 526.472 944.361 541.442C942.957 552.67 954.436 562.987 973.366 577.932C991.142 591.966 1002.37 625.649 1010.79 666.817Z" fill="#EF7E30"/>
<path d="M583.207 774.414C588.555 859.556 621.568 930.386 678.641 962.475C730.272 991.504 780.625 996.981 818.05 989.609C879.802 977.445 908.668 953.614 944.36 904.467C984.592 849.069 994.201 736.988 967.751 666.817C945.784 608.537 894.772 527.244 818.05 517.116C752.556 508.47 698.929 519.577 648.701 576.061C603.774 626.584 578.392 697.757 583.207 774.414Z" fill="#EF7E30"/>
<path d="M383.918 918.501C366.61 896.54 359.237 882.929 351.171 855.814C341.46 816.46 341.637 798.459 342.75 766.929C344.008 724.976 356.785 723.89 373.626 759.444L406.373 830.552C428.441 879.795 442.592 916.63 459.704 938.149C479.709 963.306 499.936 967.154 528.941 967.154C557.945 967.154 553.22 936.673 547.653 882.947C541.108 823.261 540.022 787.2 542.039 719.212C543.272 654.97 553.099 622.336 577.593 566.704C591.6 534.893 598.177 523.665 569.173 523.665H444.734C422.279 523.665 417.597 527.197 417.601 535.828C417.604 544.46 418.003 554.541 428.828 564.833C441.441 576.824 446.369 586.908 455.026 605.065C469.06 636.876 472.765 655.707 474.674 690.207C478.121 742.533 471.51 735.744 453.155 695.821C439.819 666.816 422.97 643.307 401.695 612.55C373.626 571.971 346.493 561.09 298.776 559.219C273.514 558.228 263.669 573.253 266.964 605.065C272.876 662.138 275.291 692.899 274.449 740.731C274.449 783.77 257.005 829.069 205.213 927.857C191.722 958.995 202.149 966.618 244.509 967.154H360.527C374.929 967.037 382.154 966.185 388.596 958.733C399.673 945.14 396.751 936.03 383.918 918.501Z" fill="#EF7E30"/>
<path d="M1348.55 801.547C1349.05 839.908 1347.91 869.791 1333.58 905.402C1328.69 917.565 1321.42 924.115 1315.81 929.728C1310.19 935.342 1302.08 953.119 1308.32 962.475C1313.93 970.896 1321.74 971.26 1338.26 971.831H1479.54C1489.83 971.831 1496.38 962.475 1496.38 953.119C1496.38 943.762 1494.56 936.907 1486.09 929.728C1475.05 920.372 1470.18 910.08 1465.5 897.917C1458.3 879.204 1453.03 846.239 1454.28 787.512C1454.28 768.8 1466.96 752.928 1490.77 728.568C1502.65 716.405 1504.8 693.014 1484.22 693.014H1333.58C1309.25 692.078 1306.45 717.233 1325.16 735.117C1345.76 754.811 1348.14 770.42 1348.55 801.547Z" fill="#EF7E30"/>
<path d="M1294.29 1163.62C1294.69 1212.02 1294.42 1265.24 1290.54 1293.68C1288.56 1308.23 1281.14 1328.34 1269.96 1336.72C1262.47 1342.33 1245.63 1352.62 1251.25 1367.59C1256.35 1381.2 1268.09 1378.82 1281.44 1378.82H1393.38C1411.24 1378.82 1421.11 1363.71 1411.24 1351.69C1401.37 1339.66 1392.69 1330.8 1385.98 1321.75C1377.23 1309.94 1375.95 1297.17 1374.75 1281.51C1372.88 1257.19 1370.95 1220.87 1371.94 1146.78C1372.24 1124.33 1369.14 1096.06 1397.09 1065.38C1414.99 1045.73 1413.39 1027.05 1397.09 1027.05H1277.73C1254.99 1027.05 1259.67 1051.35 1277.73 1070.06C1298.03 1091.1 1293.96 1124.35 1294.29 1163.62Z" fill="#EF7E30"/>
<path d="M669.285 1255.32V1129.01V1096.26C669.285 1078.48 663.025 1072.07 652.445 1054.15C645.813 1042.93 649.637 1024.21 669.285 1024.21H762.848C790.917 1024.21 786.239 1052.05 777.818 1059.77C766.59 1070.06 759.105 1077.55 759.105 1100V1255.32C759.105 1280.58 776.882 1298.35 804.951 1298.35C823.664 1298.35 845.183 1285.26 845.183 1255.32C847.109 1201.6 847.99 1152.4 847.99 1117.78C847.99 1093.29 843.422 1074.74 824.599 1056.96C807.758 1041.06 815.243 1024.21 840.505 1024.21H917.227C945.296 1024.21 947.433 1041.99 939.682 1052.28C924.735 1072.13 917.227 1085.03 917.227 1117.78V1289C917.227 1349.81 867.891 1376.52 833.956 1385.37C790.917 1396.6 746.007 1384.17 717.938 1371.33C689.869 1358.5 669.285 1328.29 669.285 1255.32Z" fill="#EF7E30"/>
<path d="M1378.49 660.267C1458.02 693.95 1511.19 640.966 1525.39 507.759C1531.93 661.202 1575.95 717.341 1661.99 675.237C1718.13 647.766 1716.25 539.57 1602.11 460.977C1726.29 522.689 1805.45 518.986 1825.72 427.295C1841.12 357.68 1791.1 281.337 1620.82 336.539C1755.6 266.325 1789.94 159.705 1706.9 107.309C1635.46 62.2372 1556.26 103.567 1524.45 277.594C1516.97 27.7805 1392.53 51.1721 1343.87 80.1761C1278.38 119.22 1254.99 228.006 1425.27 330.925C1283.99 254.203 1185.35 316.89 1196.98 398.29C1209.14 483.433 1269.1 512.943 1425.27 443.2C1343.31 523.094 1317.81 634.566 1378.49 660.267Z" fill="#F47C47"/>
<circle cx="1514.16" cy="379.578" r="80.4642" fill="#F9A850"/>
<path d="M1095.13 1024.66C1095.83 1024.67 1096.86 1024.7 1098.18 1024.76C1100.83 1024.88 1104.66 1025.14 1109.38 1025.68C1118.82 1026.76 1131.83 1028.99 1146.14 1033.56C1174.75 1042.71 1208.56 1061.25 1229.23 1098.83C1270.48 1173.83 1258.32 1255.43 1233.89 1293.01C1205.49 1336.71 1178.57 1364.29 1133.47 1374.63C1087.47 1385.17 1032.28 1384 991.141 1384C980.814 1384 972.421 1382.82 965.913 1380.77C959.409 1378.72 954.754 1375.78 951.947 1372.23C949.13 1368.66 948.203 1364.5 949.105 1360.11C950.005 1355.73 952.711 1351.15 957.101 1346.66C969.026 1334.47 977.344 1327.77 982.746 1312.81C988.161 1297.81 990.641 1274.5 990.641 1229.12V1119.65C990.815 1090.81 990.616 1076.02 975.826 1062C966.832 1053.48 964.639 1044.18 966.566 1036.95C968.49 1029.74 974.516 1024.65 981.785 1024.65H1094.06C1094.06 1024.65 1094.07 1024.65 1094.07 1024.65H1094.33C1094.51 1024.65 1094.78 1024.65 1095.13 1024.66ZM1082.83 1079.85C1079.8 1079.85 1077.48 1079.91 1075.72 1080.21C1073.95 1080.51 1072.67 1081.07 1071.8 1082.14C1070.95 1083.2 1070.56 1084.66 1070.37 1086.62C1070.17 1088.58 1070.17 1091.12 1070.17 1094.39V1094.39L1070.17 1292.74L1070.19 1294.03C1070.32 1300.29 1071.49 1304.09 1073.83 1306.32C1076.33 1308.69 1080.03 1309.15 1084.7 1309.15C1109.2 1309.15 1128.06 1298.3 1140.78 1280.16C1153.49 1262.04 1160.06 1236.67 1160.06 1207.6C1160.06 1153.26 1147.64 1121.32 1131.75 1102.95C1115.84 1084.57 1096.51 1079.85 1082.83 1079.85Z" fill="#EF7E30"/>
<path d="M1524.75 1025.4C1545.97 1018.78 1568.62 1018.51 1593.48 1021.86C1622.72 1025.81 1647.03 1043.42 1666.09 1065.66C1685.16 1087.9 1699.01 1114.8 1707.35 1137.42C1717.41 1164.72 1719.19 1199.64 1714.64 1233.1C1710.1 1266.56 1699.22 1298.62 1683.91 1320.18C1656.82 1358.32 1627.64 1381.38 1593.52 1388.26C1565.02 1394 1526 1389.66 1486.77 1367.1C1443.32 1342.12 1416.67 1287.76 1412.61 1221.68C1408.95 1162.13 1430.55 1106.18 1464.68 1066.93C1483.77 1044.98 1503.52 1032.03 1524.75 1025.4ZM1576.5 1078.94C1566.32 1076.72 1556.6 1077.47 1547.48 1082.44C1538.37 1087.41 1529.9 1096.56 1522.14 1111C1508.24 1136.86 1501.11 1174.66 1502.59 1213.8C1503.42 1235.54 1506.54 1255.35 1511.66 1271.78C1516.78 1288.2 1523.92 1301.29 1532.8 1309.55C1548.9 1324.53 1566.32 1322.28 1577.93 1318.49C1591.93 1313.93 1602.45 1303.73 1613.47 1278.61C1619.71 1264.41 1623.93 1241.55 1625.59 1217.8C1627.25 1194.04 1626.33 1169.32 1622.24 1151.36C1618.85 1136.48 1613.41 1119.71 1605.84 1106C1598.28 1092.32 1588.54 1081.57 1576.5 1078.94Z" fill="#EF7E30"/>
<circle cx="1514.16" cy="379.578" r="35.5539" fill="#F47D45"/>
<path d="M304.39 381.449C280.467 407.545 283.805 478.011 337.137 523.666C308.919 499.51 237.958 475.948 237.958 400.161C237.958 373.649 245.953 340.618 271.641 308.469C283.261 293.926 323.62 266.366 350.234 296.305C376.848 326.245 332.358 350.942 304.39 381.449Z" fill="#FBA955"/>
<path d="M796.53 344.96C860.022 479.69 1017.34 467.527 1095 406.711C1057.86 386.417 1026.23 375.835 1017.34 340.281C1007.05 299.114 1046.06 267.904 1089.38 278.53C1138.97 290.693 1152.07 315.955 1156.75 374.899C1186.19 355.85 1211.87 322.504 1219.43 278.53C1234.41 191.516 1200.97 104.501 1100.61 71.7557C1011.72 42.753 925.648 67.5149 872.317 104.503C814.307 144.736 758.17 263.559 796.53 344.96Z" fill="#F67D46"/>
<path d="M870.442 320.631C892.03 409.681 1020.15 437.586 1082.83 415.132C1049.15 409.517 962.135 415.131 940.615 326.246C923.757 256.615 990.204 192.809 1080.02 219.584C1114.75 229.937 1173.59 259.816 1163.3 370.221C1183.92 354.007 1203.53 305.124 1203.53 280.399C1203.53 231.746 1174.52 178.748 1110.9 146.938C1051 116.989 990.992 129.895 945.294 158.769C888.073 194.925 855.473 258.88 870.442 320.631Z" fill="#FBA955"/>
<path d="M982.725 228.007C941.702 252.743 928.293 302.623 943.425 343.088C960.38 388.43 991.142 412.325 1081.9 416.067L1096.28 406.711C1065.06 391.741 1027.07 377.706 1017.34 339.346C1005.26 291.71 1054.28 265.913 1096.28 279.465C1105.13 282.32 1149.56 291.723 1155.81 375.835L1164.23 369.678C1164.65 359.694 1165.17 356.187 1164.23 333.732C1162.83 300.049 1148.1 249.769 1102.49 228.007C1059.54 207.518 1015.49 208.254 982.725 228.007Z" fill="#FD8779"/>
<path d="M1700.35 882.947C1709.71 928.793 1647.95 945.634 1602.11 909.145L1676.96 985.867L1791.11 966.218L1778.94 871.72C1725.64 863.638 1707.69 865.671 1700.35 882.947Z" fill="#FBA953"/>
<path d="M1850.99 634.071C1850.99 533.022 1737.77 533.023 1737.77 627.521C1737.52 690.453 1710.16 716.153 1630.18 751.024C1563.75 779.988 1515.09 853.943 1547.84 922.245C1568.93 966.219 1624.56 995.173 1687.25 1011.13C1730.29 1022.08 1772.14 1013.2 1814.5 970.897C1842.6 942.828 1848.18 874.527 1802.33 830.553C1779.9 809.033 1751.29 802.23 1715.32 809.033C1680.7 815.582 1659.11 831.449 1650.76 857.686C1637.66 898.853 1676.96 921.323 1694.74 891.368C1699.73 882.948 1708.77 878.269 1716.25 878.269C1754.62 878.269 1765.84 891.368 1771.46 906.338C1779.18 926.922 1763.87 950.103 1749.94 960.941C1730.78 975.842 1693.8 970.897 1669.47 960.941C1638.49 948.261 1612.25 920.373 1601.17 906.338C1587.14 888.561 1588.07 844.795 1607.72 830.553C1646.37 802.541 1683.17 786.071 1755.55 762.251C1805.75 745.732 1849.02 683.018 1850.99 634.071Z" fill="url(#paint0_linear_299_58)"/>
<path d="M129.428 1508.87C87.9832 1565.01 117.265 1650.83 186.502 1676.35C252.821 1700.79 327.234 1684.77 356.786 1652.96C411.775 1593.77 437.662 1576.04 478.418 1561.27C513.972 1548.38 561.689 1557.52 599.115 1580.92C570.239 1577.66 554.067 1577.57 525.2 1583.72C492.453 1590.7 481.225 1611.79 478.418 1637.05C475.857 1660.1 501.835 1686.95 542.977 1695.06C589.758 1704.29 640.282 1697.87 668.351 1676.35C700.008 1652.08 715.133 1597.76 700.163 1557.52C685.538 1518.22 637.259 1474.89 552.333 1445.25C482.64 1420.92 408.669 1416.22 312.812 1420.92C242.64 1424.36 180.83 1439.25 129.428 1508.87Z" fill="#FD8679"/>
<path d="M376.433 1543.49C415.406 1499.6 561.228 1498.16 636.538 1559.4C588.853 1501.72 549.649 1472.38 448.477 1472.38C405.438 1472.38 366.142 1472.38 309.068 1509.81C280.999 1528.22 245.446 1581.15 275.386 1600.56C299.318 1616.08 330.872 1594.8 376.433 1543.49Z" fill="#FCA953"/>
<path d="M685.191 1432.15C642.911 1432.99 627.926 1435.08 583.207 1457.41C633.606 1477.88 646.83 1491.09 667.414 1511.68C694.867 1501.87 717.219 1509.5 778.754 1564.07C874.188 1648.71 981.785 1675.41 1125.87 1579.98C1162.92 1542.7 1177.4 1520.33 1200.72 1479.87C1211.51 1461.15 1210.8 1438.18 1181.07 1453.67C1149.26 1470.24 1105.29 1473.32 1062.25 1461.15C950.91 1429.69 943.576 1434.31 908.806 1442.44C872.317 1450.97 871.381 1482.67 889.158 1499.51C958.395 1565.11 1054.76 1555.65 1123.07 1534.13C1090.08 1561.97 1067.79 1575.75 1007.05 1590.27C965.88 1600.11 897.921 1577.17 861.089 1538.81C798.196 1473.31 729.165 1432.15 685.191 1432.15Z" fill="#F47B45"/>
<path d="M1124 1687.58C1083.77 1696 1070.67 1687.58 1110.9 1652.02C1138.97 1627.21 1152.12 1608.98 1182.95 1565.94C1232.54 1496.71 1276.51 1456.97 1338.26 1436.83C1429.39 1407.09 1504.8 1416.08 1579.65 1451.8C1661.99 1491.09 1685.31 1587.49 1651.7 1627.7C1603.98 1684.77 1525.39 1674.48 1496.38 1654.83C1588.07 1641.89 1569.36 1528.52 1458.95 1509.81C1397.77 1500.91 1338.26 1496.95 1288.67 1537.88C1217.66 1596.49 1182.05 1629.25 1124 1687.58Z" fill="#F47C47"/>
<path d="M711.756 755.339L641.201 797.536C664.1 804.062 676.87 807.248 693.526 816.779C779.034 877.17 846.788 843.11 881.559 793.485C845.854 764.722 823.136 755.696 779.947 746.562C753.447 746.544 738.491 749.077 711.756 755.339Z" fill="#F5D5AF"/>
<path d="M640.864 665.203C621.38 686.86 649.303 691.872 680.023 683.095C722.332 662.883 754.12 647.805 797.163 643.936C827.208 641.235 849.151 646.024 877.508 658.114C901.79 668.467 913.016 677.255 931.184 695.248C923.419 658.114 873.794 617.605 846.45 611.529C794.8 600.051 751.59 601.986 692.513 631.108C668.544 642.923 656.353 647.987 640.864 665.203Z" fill="#763730"/>
<path d="M657.405 755.674C732.713 672.383 841.387 675.668 880.547 728.33C822.145 687.146 751.928 675.669 657.405 755.674Z" fill="#66261D"/>
<path d="M890.336 738.796C901.813 752.638 907.215 755.338 906.202 770.529C902.151 753.987 899.45 754.663 890.336 738.796Z" fill="#66261D"/>
<path d="M868.167 752.121C875.355 768.602 879.796 772.695 874.61 787.009C875.305 769.993 872.523 769.893 868.167 752.121Z" fill="#66261D"/>
<path d="M859.954 749.261C808.235 704.275 773.122 709.914 709.055 735.083C777.915 699.209 811.522 704.948 865.355 746.223C863.743 747.898 862.592 748.601 859.954 749.261Z" fill="#500C00"/>
<path d="M691.163 811.038C676.985 806.205 660.719 802.88 643.227 800.911C658.82 804.711 667.097 807.208 679.685 813.401C685.762 816.391 687.212 820.601 685.087 823.191C674.284 836.357 674.959 840.745 688.462 826.229C695.371 818.803 699.94 821.841 705.342 826.229C696.653 838.339 695.465 843.428 695.889 849.86C703.909 848.256 706.793 844.52 711.08 836.357L719.52 841.42C721.883 843.108 722.297 845.264 720.87 849.86C717.832 859.65 716.441 862.351 718.17 867.752C720.87 876.188 720.87 872.481 720.87 865.397V865.389C720.87 858.637 723.936 855.29 727.96 849.86C730.323 846.671 731.441 846.816 734.374 848.51C738.087 850.653 739.1 852.898 739.1 858.975C739.1 870.554 739.919 874.186 743.826 881.255C746.438 885.981 748.89 884.968 746.864 878.892C744.388 871.465 744.237 865.912 746.189 857.287C747.335 852.223 750.24 851.548 753.953 854.586C758.079 857.962 760.565 861.875 760.367 870.115C760.367 878.892 761.586 880.627 763.743 883.618C765.431 885.959 766.555 884.391 765.431 881.255C763.617 876.191 764.756 868.089 767.457 862.688C769.313 858.975 771.121 858.203 773.871 858.637C780.285 859.65 779.324 864.354 779.947 868.089C780.96 874.166 781.045 875.854 783.66 880.58C785.155 883.281 787.374 881.593 786.699 877.542C785.573 870.79 785.353 868.053 786.024 862.688C786.699 857.287 788.049 855.936 792.775 856.612C800.54 857.721 801.89 857.287 804.253 868.089C805.195 872.398 806.954 875.854 809.317 878.892C812.692 881.93 815.335 882.942 812.017 876.529C809.049 870.79 808.304 867.077 806.954 857.287C806.282 852.418 812.931 849.841 817.081 855.261C821.993 861.675 820.692 867.077 825.183 873.153C830.922 880.918 831.259 877.419 828.221 870.79C825.183 864.161 824.17 853.573 825.183 849.86C825.92 847.159 829.909 843.108 833.285 849.185C837.162 857.851 839.319 862.605 845.1 869.777C849.489 875.179 849.826 868.824 847.126 865.051C843.086 859.407 842.919 857.32 840.712 850.535C838.844 844.796 840.374 842.771 844.425 844.459C855.768 849.185 860.325 855.04 869.744 863.363C871.654 865.051 872.782 864.504 871.094 862.013C864.366 852.086 860.595 848.169 852.189 839.733C849.826 837.361 849.826 829.605 855.903 832.981C859.29 834.54 861.304 834.965 864.005 837.032C867.06 839.37 868.943 840.374 873.12 840.745C876.897 840.797 877.846 841.758 880.884 843.784C884.079 845.914 886.435 844.459 882.909 841.758C877.352 837.501 872.657 834.02 866.368 830.955C858.941 827.336 866.368 820.49 872.782 827.242L883.585 837.032C886.96 840.07 888.986 839.057 886.623 835.344C883.585 830.57 879.99 827.255 875.483 822.854C871.432 818.898 874.807 808 881.897 813.401C890.636 820.06 896.617 821.912 906.08 824.841L906.203 824.879C912.279 826.76 912.617 822.178 906.203 820.828C897.763 819.051 894.236 815.646 888.311 811.376C884.597 808.7 886.623 805.974 890.674 808C898.101 811.713 917.005 811.376 925.107 808C929.158 806.312 932.196 801.248 923.082 803.949C905.527 808 897.133 803.836 888.311 796.185L875.483 798.548C839.361 835.344 813.125 845.204 770.495 844.121C727.864 843.039 706.017 816.102 691.163 811.038Z" fill="#743830"/>
<path d="M713.444 761.752L642.214 794.835C723.909 730.357 778.259 710.102 846.113 757.364C862.622 753.559 870.8 750.357 884.597 743.86C896.75 738.138 897.088 740.147 886.96 747.236C878.521 753.144 874.313 756.222 866.03 760.402C861.642 762.617 864.342 767.468 868.731 767.491C886.049 767.582 892.539 767.102 899.113 765.466C911.604 762.356 911.604 765.466 903.839 770.529C898.101 774.272 893.877 775.256 884.597 776.606C880.209 776.606 876.495 787.612 889.323 790.109C898.024 791.802 906.878 792.945 916.33 790.109C929.833 786.058 931.184 790.109 919.031 793.822C910.442 795.911 905.283 796.777 894.05 796.523L875.145 798.886C866.771 797.006 862.373 796.809 854.553 796.523C830.451 821.239 828.989 820.799 848.814 792.472C843.16 788.377 839.865 786.858 833.96 784.37C838.686 809.689 801.215 840.409 769.144 836.695C738.76 833.177 713.795 813.337 713.444 761.752Z" fill="#773831"/>
<circle cx="797.838" cy="775.93" r="9.96502" fill="#FEEAD2" stroke="black"/>
<g filter="url(#filter1_f_299_58)">
<path d="M739.438 820.828C732.793 815.501 729.495 811.66 724.922 802.261H754.967L739.438 820.828Z" fill="url(#paint1_linear_299_58)"/>
</g>
</g>
<defs>
<filter id="filter0_d_299_58" x="0.00039053" y="54.6504" width="1865.39" height="1662.91" filterUnits="userSpaceOnUse" color-interpolation-filters="sRGB">
<feFlood flood-opacity="0" result="BackgroundImageFix"/>
<feColorMatrix in="SourceAlpha" type="matrix" values="0 0 0 0 0 0 0 0 0 0 0 0 0 0 0 0 0 0 127 0" result="hardAlpha"/>
<feMorphology radius="1" operator="dilate" in="SourceAlpha" result="effect1_dropShadow_299_58"/>
<feOffset dx="6" dy="10"/>
<feGaussianBlur stdDeviation="3.7"/>
<feComposite in2="hardAlpha" operator="out"/>
<feColorMatrix type="matrix" values="0 0 0 0 0 0 0 0 0 0 0 0 0 0 0 0 0 0 0.25 0"/>
<feBlend mode="normal" in2="BackgroundImageFix" result="effect1_dropShadow_299_58"/>
<feBlend mode="normal" in="SourceGraphic" in2="effect1_dropShadow_299_58" result="shape"/>
</filter>
<filter id="filter1_f_299_58" x="720.922" y="798.261" width="38.0449" height="26.5674" filterUnits="userSpaceOnUse" color-interpolation-filters="sRGB">
<feFlood flood-opacity="0" result="BackgroundImageFix"/>
<feBlend mode="normal" in="SourceGraphic" in2="BackgroundImageFix" result="shape"/>
<feGaussianBlur stdDeviation="2" result="effect1_foregroundBlur_299_58"/>
</filter>
<linearGradient id="paint0_linear_299_58" x1="1536.61" y1="877.334" x2="1729.35" y2="957.798" gradientUnits="userSpaceOnUse">
<stop stop-color="#F47B44"/>
<stop offset="1" stop-color="#FB8674"/>
</linearGradient>
<linearGradient id="paint1_linear_299_58" x1="730.661" y1="811.375" x2="759.018" y2="795.172" gradientUnits="userSpaceOnUse">
<stop stop-color="#B9654A"/>
<stop offset="1" stop-color="#532D21"/>
</linearGradient>
</defs>
</svg>
