<svg width="887" height="341" viewBox="0 0 887 341" fill="none" xmlns="http://www.w3.org/2000/svg">
<g filter="url(#filter0_d_316_76)">
<path d="M259.372 176.365C262.795 230.863 283.926 276.2 320.457 296.74C353.504 315.321 385.733 318.826 409.688 314.108C449.213 306.322 467.69 291.068 490.535 259.61C516.286 224.151 522.437 152.41 505.507 107.494C491.446 70.1904 458.795 18.1564 409.688 11.6736C367.767 6.13937 333.442 13.2491 301.293 49.403C272.536 81.7421 256.29 127.299 259.372 176.365Z" fill="#EF7E30"/>
</g>
<path d="M341.637 164.249L296.485 191.254C311.14 195.43 319.312 197.469 329.971 203.568C384.693 242.216 428.053 220.419 450.305 188.661C427.455 170.254 412.917 164.477 385.277 158.632C368.318 158.621 358.747 160.242 341.637 164.249Z" fill="#F5D5AF"/>
<path d="M296.27 106.565C283.801 120.425 301.671 123.632 321.33 118.015C348.406 105.08 368.749 95.4311 396.296 92.955C415.523 91.2267 429.566 94.2915 447.713 102.029C463.253 108.654 470.437 114.278 482.063 125.793C477.094 102.029 445.337 76.1042 427.837 72.2156C394.783 64.8703 367.131 66.1088 329.324 84.7454C313.985 92.3068 306.182 95.5474 296.27 106.565Z" fill="#763730"/>
<path d="M306.855 164.463C355.049 111.16 424.597 113.262 449.657 146.964C412.282 120.608 367.346 113.263 306.855 164.463Z" fill="#66261D"/>
<path d="M455.923 153.662C463.269 162.52 466.726 164.248 466.077 173.97C463.485 163.384 461.756 163.816 455.923 153.662Z" fill="#66261D"/>
<path d="M441.735 162.189C446.335 172.737 449.177 175.356 445.858 184.516C446.303 173.626 444.523 173.563 441.735 162.189Z" fill="#66261D"/>
<path d="M436.479 160.359C403.381 131.569 380.91 135.178 339.909 151.285C383.977 128.327 405.484 132 439.935 158.414C438.904 159.486 438.167 159.936 436.479 160.359Z" fill="#500C00"/>
<path d="M328.46 199.894C319.386 196.801 308.977 194.674 297.782 193.413C307.761 195.845 313.059 197.443 321.114 201.407C325.003 203.32 325.931 206.014 324.571 207.672C317.658 216.097 318.09 218.906 326.731 209.616C331.153 204.863 334.077 206.808 337.533 209.616C331.973 217.366 331.212 220.622 331.484 224.739C336.616 223.712 338.462 221.321 341.206 216.097L346.607 219.338C348.119 220.418 348.384 221.798 347.471 224.739C345.527 231.004 344.636 232.732 345.743 236.189C347.471 241.588 347.471 239.215 347.471 234.682V234.677C347.471 230.356 349.433 228.214 352.008 224.739C353.52 222.698 354.236 222.791 356.113 223.875C358.489 225.247 359.137 226.683 359.137 230.572C359.137 237.982 359.662 240.307 362.162 244.83C363.833 247.855 365.402 247.207 364.106 243.318C362.522 238.565 362.425 235.012 363.674 229.492C364.408 226.251 366.267 225.819 368.643 227.763C371.283 229.924 372.874 232.428 372.748 237.701C372.748 243.318 373.528 244.429 374.908 246.343C375.988 247.841 376.707 246.837 375.988 244.83C374.827 241.59 375.556 236.405 377.285 232.948C378.473 230.572 379.63 230.078 381.389 230.356C385.494 231.004 384.88 234.014 385.278 236.405C385.926 240.294 385.98 241.374 387.654 244.398C388.611 246.127 390.031 245.047 389.599 242.454C388.879 238.133 388.738 236.381 389.167 232.948C389.599 229.492 390.463 228.628 393.487 229.06C398.456 229.769 399.321 229.492 400.833 236.405C401.436 239.162 402.561 241.374 404.073 243.318C406.234 245.263 407.925 245.91 405.802 241.806C403.902 238.133 403.425 235.757 402.561 229.492C402.131 226.376 406.386 224.727 409.042 228.195C412.186 232.3 411.353 235.757 414.227 239.646C417.9 244.614 418.116 242.375 416.172 238.133C414.227 233.891 413.579 227.115 414.227 224.739C414.699 223.011 417.252 220.418 419.412 224.307C421.894 229.853 423.274 232.895 426.973 237.485C429.782 240.942 429.998 236.875 428.27 234.461C425.684 230.848 425.578 229.513 424.165 225.171C422.97 221.498 423.949 220.202 426.541 221.282C433.8 224.307 436.717 228.054 442.744 233.38C443.967 234.461 444.689 234.11 443.608 232.516C439.303 226.163 436.89 223.657 431.51 218.258C429.998 216.74 429.998 211.777 433.887 213.937C436.054 214.935 437.343 215.207 439.072 216.529C441.027 218.026 442.232 218.668 444.905 218.906C447.322 218.939 447.929 219.554 449.874 220.85C451.918 222.213 453.426 221.282 451.17 219.554C447.613 216.83 444.608 214.602 440.584 212.641C435.831 210.324 440.584 205.943 444.689 210.264L451.602 216.529C453.762 218.474 455.059 217.826 453.546 215.449C451.602 212.394 449.302 210.272 446.417 207.456C443.825 204.924 445.985 197.95 450.522 201.407C456.115 205.668 459.942 206.853 465.998 208.728L466.077 208.752C469.965 209.956 470.181 207.024 466.077 206.16C460.676 205.022 458.418 202.843 454.626 200.11C452.25 198.398 453.546 196.654 456.139 197.95C460.892 200.326 472.99 200.11 478.175 197.95C480.767 196.87 482.712 193.629 476.878 195.358C465.644 197.95 460.272 195.285 454.626 190.389L446.417 191.901C423.301 215.449 406.511 221.759 379.229 221.066C351.947 220.373 337.965 203.135 328.46 199.894Z" fill="#743830"/>
<path d="M342.718 168.353L297.134 189.524C349.415 148.261 384.197 135.298 427.621 165.544C438.186 163.109 443.42 161.06 452.25 156.903C460.027 153.24 460.243 154.526 453.762 159.063C448.361 162.844 445.668 164.813 440.368 167.489C437.559 168.906 439.287 172.011 442.096 172.025C453.178 172.084 457.332 171.777 461.539 170.729C469.533 168.739 469.533 170.729 464.564 173.97C460.891 176.365 458.188 176.995 452.25 177.858C449.441 177.858 447.065 184.902 455.274 186.5C460.842 187.584 466.508 188.315 472.557 186.5C481.199 183.907 482.063 186.5 474.286 188.876C468.789 190.213 465.487 190.767 458.299 190.605L446.201 192.117C440.841 190.914 438.027 190.788 433.022 190.605C417.598 206.422 416.663 206.14 429.35 188.012C425.731 185.392 423.623 184.42 419.844 182.827C422.868 199.03 398.888 218.69 378.364 216.313C358.919 214.062 342.943 201.365 342.718 168.353Z" fill="#773831"/>
<circle cx="396.727" cy="177.426" r="6.19721" fill="#FEEAD2" stroke="black"/>
<g filter="url(#filter1_f_316_76)">
<path d="M359.353 206.159C355.101 202.749 352.99 200.292 350.063 194.276H369.291L359.353 206.159Z" fill="url(#paint0_linear_316_76)"/>
</g>
<g filter="url(#filter2_d_316_76)">
<path d="M528.976 113.22C537.82 154.879 541.38 177.035 546.049 215.104C549.951 249.018 552.691 263.991 558.064 287.245C563.182 309.394 579.564 322.683 592.211 322.683C628.161 323.997 631.058 322.279 638.374 319.519C645.689 316.759 655.447 303.066 661.139 282.815L682.639 192.322L706.036 96.1337C712.359 72.7194 717.049 63.8257 734.492 43.6097C744.867 31.5861 744.61 15.1328 720.58 15.1328H666.83C651.021 15.1328 641.88 17.0313 641.535 27.7892C641.275 35.925 642.167 42.5736 645.962 47.4066C652.917 56.2661 650.388 89.1727 649.124 99.9306C647.859 110.689 635.844 167.01 635.844 167.01C626.991 210.041 616.241 216.369 606.756 167.01C600.264 135.049 597.785 119.926 592.844 91.704C587.612 63.7545 589.758 51.8917 602.329 37.2815C609.408 29.0548 606.756 15.1321 588.417 15.1328H498.622C491.033 15.1328 485.343 18.2969 484.078 28.422C483.13 36.0159 490.888 42.9937 503.682 53.102C515.696 62.5943 523.285 85.3758 528.976 113.22Z" fill="#EF7E30"/>
</g>
<g filter="url(#filter3_d_316_76)">
<path d="M124.769 283.221C113.048 268.366 108.055 259.159 102.593 240.816C96.0161 214.196 96.1362 202.019 96.8901 180.69C97.7419 152.31 106.394 151.576 117.799 175.627L139.975 223.728C154.919 257.039 164.502 281.956 176.09 296.513C189.637 313.53 203.335 316.133 222.977 316.133C242.618 316.133 239.418 295.514 235.648 259.171C231.216 218.796 230.481 194.402 231.847 148.411C232.681 104.955 239.336 82.8795 255.924 45.2467C265.409 23.7277 269.863 16.1329 250.221 16.1328H165.952C150.746 16.1328 147.576 18.5218 147.578 24.3607C147.58 30.1995 147.85 37.0189 155.181 43.9809C163.723 52.0925 167.06 58.9136 172.922 71.1961C182.426 92.7151 184.935 105.453 186.228 128.791C188.562 164.187 184.085 159.595 171.655 132.589C162.624 112.968 151.214 97.0653 136.807 76.2594C117.799 48.8094 99.4245 41.4493 67.1109 40.1834C50.0037 39.5133 43.3371 49.6771 45.5685 71.1961C49.5719 109.804 51.2071 130.612 50.6373 162.968C50.6373 192.082 38.8239 222.725 3.75089 289.551C-5.385 310.614 1.6765 315.771 30.3621 316.133H108.929C118.681 316.054 123.574 315.478 127.937 310.437C135.438 301.242 133.459 295.079 124.769 283.221Z" fill="#EF7E30"/>
</g>
<g filter="url(#filter4_d_316_76)">
<path d="M757.739 204.714C758.08 230.715 757.305 250.97 747.612 275.107C744.301 283.351 739.388 287.79 735.589 291.595C731.79 295.4 726.304 307.449 730.524 313.791C734.321 319.499 739.603 319.746 750.777 320.133H846.345C853.309 320.133 857.737 313.791 857.737 307.449C857.737 301.108 856.508 296.461 850.777 291.595C843.307 285.254 840.018 278.278 836.852 270.033C831.981 257.35 828.413 235.007 829.257 195.201C829.257 182.518 837.837 171.76 853.94 155.248C861.98 147.004 863.435 131.15 849.511 131.15H747.612C731.157 130.516 729.258 147.566 741.916 159.688C755.854 173.036 757.462 183.616 757.739 204.714Z" fill="#EF7E30"/>
</g>
<g filter="url(#filter5_d_316_76)">
<ellipse cx="812.625" cy="59.9783" rx="57.3737" ry="50.3123" transform="rotate(-10.5638 812.625 59.9783)" fill="#EF7E30"/>
</g>
<defs>
<filter id="filter0_d_316_76" x="259" y="10" width="272.8" height="323.8" filterUnits="userSpaceOnUse" color-interpolation-filters="sRGB">
<feFlood flood-opacity="0" result="BackgroundImageFix"/>
<feColorMatrix in="SourceAlpha" type="matrix" values="0 0 0 0 0 0 0 0 0 0 0 0 0 0 0 0 0 0 127 0" result="hardAlpha"/>
<feOffset dx="12" dy="13"/>
<feGaussianBlur stdDeviation="2.4"/>
<feComposite in2="hardAlpha" operator="out"/>
<feColorMatrix type="matrix" values="0 0 0 0 0 0 0 0 0 0 0 0 0 0 0 0 0 0 0.25 0"/>
<feBlend mode="normal" in2="BackgroundImageFix" result="effect1_dropShadow_316_76"/>
<feBlend mode="normal" in="SourceGraphic" in2="effect1_dropShadow_316_76" result="shape"/>
</filter>
<filter id="filter1_f_316_76" x="346.063" y="190.276" width="27.2275" height="19.8818" filterUnits="userSpaceOnUse" color-interpolation-filters="sRGB">
<feFlood flood-opacity="0" result="BackgroundImageFix"/>
<feBlend mode="normal" in="SourceGraphic" in2="BackgroundImageFix" result="shape"/>
<feGaussianBlur stdDeviation="2" result="effect1_foregroundBlur_316_76"/>
</filter>
<filter id="filter2_d_316_76" x="484" y="15.1328" width="273.8" height="325.8" filterUnits="userSpaceOnUse" color-interpolation-filters="sRGB">
<feFlood flood-opacity="0" result="BackgroundImageFix"/>
<feColorMatrix in="SourceAlpha" type="matrix" values="0 0 0 0 0 0 0 0 0 0 0 0 0 0 0 0 0 0 127 0" result="hardAlpha"/>
<feOffset dx="12" dy="13"/>
<feGaussianBlur stdDeviation="2.4"/>
<feComposite in2="hardAlpha" operator="out"/>
<feColorMatrix type="matrix" values="0 0 0 0 0 0 0 0 0 0 0 0 0 0 0 0 0 0 0.25 0"/>
<feBlend mode="normal" in2="BackgroundImageFix" result="effect1_dropShadow_316_76"/>
<feBlend mode="normal" in="SourceGraphic" in2="effect1_dropShadow_316_76" result="shape"/>
</filter>
<filter id="filter3_d_316_76" x="0" y="16.1328" width="280.8" height="317.8" filterUnits="userSpaceOnUse" color-interpolation-filters="sRGB">
<feFlood flood-opacity="0" result="BackgroundImageFix"/>
<feColorMatrix in="SourceAlpha" type="matrix" values="0 0 0 0 0 0 0 0 0 0 0 0 0 0 0 0 0 0 127 0" result="hardAlpha"/>
<feOffset dx="12" dy="13"/>
<feGaussianBlur stdDeviation="2.4"/>
<feComposite in2="hardAlpha" operator="out"/>
<feColorMatrix type="matrix" values="0 0 0 0 0 0 0 0 0 0 0 0 0 0 0 0 0 0 0.25 0"/>
<feBlend mode="normal" in2="BackgroundImageFix" result="effect1_dropShadow_316_76"/>
<feBlend mode="normal" in="SourceGraphic" in2="effect1_dropShadow_316_76" result="shape"/>
</filter>
<filter id="filter4_d_316_76" x="729" y="131.133" width="147.8" height="206.8" filterUnits="userSpaceOnUse" color-interpolation-filters="sRGB">
<feFlood flood-opacity="0" result="BackgroundImageFix"/>
<feColorMatrix in="SourceAlpha" type="matrix" values="0 0 0 0 0 0 0 0 0 0 0 0 0 0 0 0 0 0 127 0" result="hardAlpha"/>
<feOffset dx="12" dy="13"/>
<feGaussianBlur stdDeviation="2.4"/>
<feComposite in2="hardAlpha" operator="out"/>
<feColorMatrix type="matrix" values="0 0 0 0 0 0 0 0 0 0 0 0 0 0 0 0 0 0 0.25 0"/>
<feBlend mode="normal" in2="BackgroundImageFix" result="effect1_dropShadow_316_76"/>
<feBlend mode="normal" in="SourceGraphic" in2="effect1_dropShadow_316_76" result="shape"/>
</filter>
<filter id="filter5_d_316_76" x="755.466" y="9.40234" width="131.118" height="118.952" filterUnits="userSpaceOnUse" color-interpolation-filters="sRGB">
<feFlood flood-opacity="0" result="BackgroundImageFix"/>
<feColorMatrix in="SourceAlpha" type="matrix" values="0 0 0 0 0 0 0 0 0 0 0 0 0 0 0 0 0 0 127 0" result="hardAlpha"/>
<feOffset dx="12" dy="13"/>
<feGaussianBlur stdDeviation="2.4"/>
<feComposite in2="hardAlpha" operator="out"/>
<feColorMatrix type="matrix" values="0 0 0 0 0 0 0 0 0 0 0 0 0 0 0 0 0 0 0.25 0"/>
<feBlend mode="normal" in2="BackgroundImageFix" result="effect1_dropShadow_316_76"/>
<feBlend mode="normal" in="SourceGraphic" in2="effect1_dropShadow_316_76" result="shape"/>
</filter>
<linearGradient id="paint0_linear_316_76" x1="353.736" y1="200.109" x2="371.883" y2="189.74" gradientUnits="userSpaceOnUse">
<stop stop-color="#B9654A"/>
<stop offset="1" stop-color="#532D21"/>
</linearGradient>
</defs>
</svg>
